<svg width="25" height="25" viewBox="0 0 25 25" fill="none" xmlns="http://www.w3.org/2000/svg">
<path d="M8.5 7.5C8.5 8.56087 8.92143 9.57828 9.67157 10.3284C10.4217 11.0786 11.4391 11.5 12.5 11.5C13.5609 11.5 14.5783 11.0786 15.3284 10.3284C16.0786 9.57828 16.5 8.56087 16.5 7.5C16.5 6.43913 16.0786 5.42172 15.3284 4.67157C14.5783 3.92143 13.5609 3.5 12.5 3.5C11.4391 3.5 10.4217 3.92143 9.67157 4.67157C8.92143 5.42172 8.5 6.43913 8.5 7.5Z" stroke="white" stroke-width="2" stroke-linecap="round" stroke-linejoin="round"/>
<path d="M6.5 21.5V19.5C6.5 18.4391 6.92143 17.4217 7.67157 16.6716C8.42172 15.9214 9.43913 15.5 10.5 15.5H14" stroke="white" stroke-width="2" stroke-linecap="round" stroke-linejoin="round"/>
<path d="M20.5 21.5L22.5 19.5L20.5 17.5" stroke="white" stroke-width="2" stroke-linecap="round" stroke-linejoin="round"/>
<path d="M17.5 17.5L15.5 19.5L17.5 21.5" stroke="white" stroke-width="2" stroke-linecap="round" stroke-linejoin="round"/>
</svg>
