<svg width="24" height="24" viewBox="0 0 24 24" fill="none" xmlns="http://www.w3.org/2000/svg">
<path d="M17.6266 6.75C17.4426 9.228 15.5636 11.25 13.5016 11.25C11.4386 11.25 9.55657 9.229 9.37657 6.75C9.18857 4.172 11.0166 2.25 13.5016 2.25C15.9856 2.25 17.8136 4.219 17.6266 6.75Z" stroke="white" stroke-width="1.5" stroke-linecap="round" stroke-linejoin="round"/>
<path d="M13.5001 14.25C9.42215 14.25 5.28315 16.5 4.51715 20.747C4.42415 21.259 4.71515 21.75 5.25115 21.75H21.7511C22.2871 21.75 22.5761 21.259 22.4841 20.747C21.7181 16.5 17.5791 14.25 13.5001 14.25Z" stroke="white" stroke-width="1.5" stroke-linecap="round" stroke-linejoin="round"/>
<path d="M4.125 8.25V13.5" stroke="white" stroke-width="1.5" stroke-linecap="round" stroke-linejoin="round"/>
<path d="M6.75 10.875H1.5" stroke="white" stroke-width="1.5" stroke-linecap="round" stroke-linejoin="round"/>
</svg>
