<svg width="24" height="24" viewBox="0 0 24 24" fill="none" xmlns="http://www.w3.org/2000/svg">
<path d="M15.75 15.75H17.625C17.8712 15.75 18.115 15.7015 18.3425 15.6073C18.57 15.513 18.7767 15.3749 18.9508 15.2008C19.1249 15.0267 19.263 14.82 19.3573 14.5925C19.4515 14.365 19.5 14.1212 19.5 13.875V4.125C19.5 3.62772 19.3025 3.15081 18.9508 2.79917C18.5992 2.44754 18.1223 2.25 17.625 2.25H6.375C5.87772 2.25 5.40081 2.44754 5.04917 2.79917C4.69754 3.15081 4.5 3.62772 4.5 4.125V13.875C4.5 14.1212 4.5485 14.365 4.64273 14.5925C4.73695 14.82 4.87506 15.0267 5.04917 15.2008C5.22328 15.3749 5.42998 15.513 5.65747 15.6073C5.88495 15.7015 6.12877 15.75 6.375 15.75H8.25" stroke="white" stroke-width="1.5" stroke-linecap="round" stroke-linejoin="round"/>
<path d="M8.25 11.25L12 7.5L15.75 11.25" stroke="white" stroke-width="1.5" stroke-linecap="round" stroke-linejoin="round"/>
<path d="M12 21.75V8.25" stroke="white" stroke-width="1.5" stroke-linecap="round" stroke-linejoin="round"/>
</svg>
