<svg width="24" height="24" viewBox="0 0 24 24" fill="none" xmlns="http://www.w3.org/2000/svg">
<path d="M12.2948 9.015C11.8991 8.9689 11.4981 9.00207 11.1154 9.11257C10.7327 9.22308 10.3758 9.40872 10.0655 9.65864C9.7553 9.90856 9.49795 10.2178 9.3085 10.5682C9.11906 10.9187 9.00131 11.3034 8.96213 11.6998C8.92295 12.0962 8.96312 12.4965 9.08031 12.8773C9.19749 13.258 9.38933 13.6116 9.64464 13.9175C9.89995 14.2233 10.2136 14.4752 10.5673 14.6585C10.921 14.8418 11.3077 14.9528 11.7048 14.985C12.4888 15.0487 13.2664 14.8019 13.8702 14.2978C14.474 13.7937 14.8557 13.0726 14.933 12.2899C15.0104 11.5071 14.7772 10.7253 14.2838 10.1128C13.7903 9.50026 13.0761 9.10603 12.2948 9.015ZM19.5168 12C19.5148 12.3263 19.4907 12.652 19.4448 12.975L21.5648 14.637C21.6567 14.7136 21.7186 14.8203 21.7395 14.9382C21.7604 15.056 21.7389 15.1775 21.6788 15.281L19.6738 18.75C19.6129 18.8524 19.5178 18.93 19.4054 18.9694C19.2929 19.0087 19.1702 19.0071 19.0588 18.965L16.9538 18.118C16.8378 18.0716 16.712 18.0548 16.5879 18.0691C16.4638 18.0834 16.3452 18.1284 16.2428 18.2C15.9215 18.4213 15.5838 18.6179 15.2328 18.788C15.1225 18.8417 15.0272 18.9216 14.9551 19.0209C14.8831 19.1201 14.8366 19.2355 14.8198 19.357L14.5038 21.601C14.4832 21.7195 14.422 21.8272 14.3308 21.9056C14.2396 21.9841 14.124 22.0284 14.0038 22.031H9.99377C9.87552 22.0291 9.76144 21.987 9.67036 21.9115C9.57928 21.8361 9.51664 21.7318 9.49277 21.616L9.17777 19.374C9.16012 19.2511 9.11236 19.1345 9.03873 19.0345C8.96511 18.9345 8.8679 18.8543 8.75577 18.801C8.4052 18.6316 8.06878 18.4343 7.74977 18.211C7.64765 18.14 7.52947 18.0955 7.40588 18.0816C7.28229 18.0676 7.15717 18.0846 7.04177 18.131L4.93677 18.979C4.82521 19.0214 4.70227 19.0231 4.5896 18.9838C4.47692 18.9444 4.38172 18.8666 4.32077 18.764L2.31877 15.295C2.2585 15.1915 2.23687 15.07 2.25775 14.9521C2.27862 14.8342 2.34064 14.7275 2.43277 14.651L4.22477 13.245C4.3227 13.167 4.39959 13.0658 4.44849 12.9505C4.49738 12.8353 4.51673 12.7096 4.50477 12.585C4.46931 12.1975 4.46931 11.8075 4.50477 11.42C4.51542 11.296 4.49504 11.1713 4.44546 11.0571C4.39588 10.9429 4.31866 10.8429 4.22077 10.766L2.42977 9.36C2.33904 9.28314 2.2782 9.17683 2.25791 9.05965C2.23762 8.94248 2.25916 8.8219 2.31877 8.719L4.32377 5.25C4.38472 5.14739 4.47992 5.06958 4.5926 5.03025C4.70527 4.99092 4.82821 4.99261 4.93977 5.035L7.04477 5.882C7.16068 5.92804 7.2862 5.94465 7.41009 5.93034C7.53399 5.91603 7.65241 5.87125 7.75477 5.8C8.07611 5.57907 8.41375 5.38284 8.76477 5.213C8.87534 5.15937 8.97097 5.0793 9.04319 4.97987C9.1154 4.88044 9.16197 4.76473 9.17877 4.643L9.49377 2.4C9.51455 2.28157 9.57573 2.174 9.66689 2.0956C9.75805 2.0172 9.87357 1.97282 9.99377 1.97H14.0038C14.1223 1.97171 14.2368 2.0139 14.3281 2.08956C14.4194 2.16522 14.4821 2.26982 14.5058 2.386L14.8208 4.627C14.8383 4.7498 14.8859 4.86636 14.9594 4.96632C15.0328 5.06629 15.1298 5.14656 15.2418 5.2C15.5928 5.37 15.9288 5.566 16.2478 5.79C16.35 5.86117 16.4684 5.90575 16.5922 5.91971C16.7159 5.93368 16.8412 5.91659 16.9568 5.87L19.0608 5.022C19.1723 4.97961 19.2953 4.97792 19.408 5.01725C19.5206 5.05658 19.6158 5.13439 19.6768 5.237L21.6818 8.706C21.7419 8.80959 21.7634 8.93116 21.7423 9.04908C21.7213 9.16701 21.6591 9.27364 21.5668 9.35L19.7758 10.756C19.6771 10.8336 19.5995 10.9346 19.5499 11.0499C19.5002 11.1652 19.4803 11.291 19.4918 11.416C19.5078 11.611 19.5178 11.806 19.5178 12.001L19.5168 12Z" stroke="white" stroke-width="1.5" stroke-linecap="round" stroke-linejoin="round"/>
</svg>
