<svg width="80" height="80" viewBox="0 0 80 80" fill="none" xmlns="http://www.w3.org/2000/svg">
<g clip-path="url(#clip0_1808_9523)">
<path d="M10 63.3333C21.11 56.6667 26.6667 50 26.6667 43.3333C26.6667 33.3333 23.3333 33.3333 20 33.3333C16.6667 33.3333 13.2267 36.95 13.3333 43.3333C13.4467 50.16 18.86 52.9233 21.6667 56.6667C26.6667 63.3333 30 65 33.3333 60C35.5567 56.6667 37.2233 53.89 38.3333 51.6667C41.6667 59.4433 46.11 63.3333 51.6667 63.3333H60" stroke="#AAC1BC" stroke-width="2.75" stroke-linecap="round" stroke-linejoin="round"/>
<path d="M66.6673 56.6667V16.6667C66.6673 12.93 63.7373 10 60.0007 10C56.264 10 53.334 12.93 53.334 16.6667V56.6667L60.0007 63.3333L66.6673 56.6667Z" stroke="#AAC1BC" stroke-width="2.75" stroke-linecap="round" stroke-linejoin="round"/>
<path d="M53.334 23.3333H66.6673" stroke="#AAC1BC" stroke-width="2.75" stroke-linecap="round" stroke-linejoin="round"/>
</g>
</svg>
