<svg width="80" height="80" viewBox="0 0 80 80" fill="none" xmlns="http://www.w3.org/2000/svg">
<g clip-path="url(#clip0_1809_9528)">
<path d="M69.75 43.8767C70.3025 39.6451 69.9457 35.3443 68.7033 31.2617C67.461 27.179 65.3617 23.4085 62.5458 20.202C59.7298 16.9954 56.2621 14.4267 52.3741 12.6674C48.4861 10.9081 44.2675 9.9987 40 10C32.0435 10 24.4129 13.1607 18.7868 18.7868C13.1607 24.4129 10 32.0435 10 40C10 47.9565 13.1607 55.5871 18.7868 61.2132C24.4129 66.8393 32.0435 70 40 70" stroke="#AAC1BC" stroke-width="2.75" stroke-linecap="round" stroke-linejoin="round"/>
<path d="M30 33.3333H30.0333" stroke="#AAC1BC" stroke-width="2.75" stroke-linecap="round" stroke-linejoin="round"/>
<path d="M50 33.3333H50.0333" stroke="#AAC1BC" stroke-width="2.75" stroke-linecap="round" stroke-linejoin="round"/>
<path d="M31.666 50C33.8593 52.1333 36.866 53.3333 39.9993 53.3333C43.1327 53.3333 46.1393 52.1333 48.3327 50" stroke="#AAC1BC" stroke-width="2.75" stroke-linecap="round" stroke-linejoin="round"/>
<path d="M50 63.3333L56.6667 70L70 56.6667" stroke="#AAC1BC" stroke-width="2.75" stroke-linecap="round" stroke-linejoin="round"/>
</g>
</svg>
