<svg width="16" height="16" viewBox="0 0 16 16" fill="none" xmlns="http://www.w3.org/2000/svg">
<path d="M5.33594 6.66671C5.33594 6.31309 5.47641 5.97395 5.72646 5.7239C5.97651 5.47385 6.31565 5.33337 6.66927 5.33337H12.0026C12.3562 5.33337 12.6954 5.47385 12.9454 5.7239C13.1955 5.97395 13.3359 6.31309 13.3359 6.66671V12C13.3359 12.3537 13.1955 12.6928 12.9454 12.9428C12.6954 13.1929 12.3562 13.3334 12.0026 13.3334H6.66927C6.31565 13.3334 5.97651 13.1929 5.72646 12.9428C5.47641 12.6928 5.33594 12.3537 5.33594 12V6.66671Z" stroke="#00A023" stroke-width="1.2" stroke-linecap="round" stroke-linejoin="round"/>
<path d="M10.6641 5.33329V3.99996C10.6641 3.64634 10.5236 3.3072 10.2735 3.05715C10.0235 2.8071 9.68435 2.66663 9.33073 2.66663H3.9974C3.64377 2.66663 3.30464 2.8071 3.05459 3.05715C2.80454 3.3072 2.66406 3.64634 2.66406 3.99996V9.33329C2.66406 9.68691 2.80454 10.0261 3.05459 10.2761C3.30464 10.5262 3.64377 10.6666 3.9974 10.6666H5.33073" stroke="#00A023" stroke-width="1.2" stroke-linecap="round" stroke-linejoin="round"/>
</svg>
