<svg width="24" height="24" viewBox="0 0 24 24" fill="none" xmlns="http://www.w3.org/2000/svg">
<path d="M21.7031 12.0001C21.7031 6.63966 17.3577 2.29419 11.9972 2.29419C8.03431 2.29419 4.6261 4.66925 3.11838 8.0736" stroke="#004231" stroke-width="2" stroke-linecap="round"/>
<path d="M2.29677 12C2.29677 17.3604 6.64224 21.7059 12.0027 21.7059C16.1179 21.7059 19.635 19.1447 21.0469 15.5294" stroke="#004231" stroke-width="2" stroke-linecap="round"/>
<path d="M11.792 16.168C11.104 16.168 10.44 16.084 9.8 15.916C9.168 15.74 8.652 15.516 8.252 15.244L9.032 13.492C9.408 13.732 9.84 13.932 10.328 14.092C10.824 14.244 11.316 14.32 11.804 14.32C12.132 14.32 12.396 14.292 12.596 14.236C12.796 14.172 12.94 14.092 13.028 13.996C13.124 13.892 13.172 13.772 13.172 13.636C13.172 13.444 13.084 13.292 12.908 13.18C12.732 13.068 12.504 12.976 12.224 12.904C11.944 12.832 11.632 12.76 11.288 12.688C10.952 12.616 10.612 12.524 10.268 12.412C9.932 12.3 9.624 12.156 9.344 11.98C9.064 11.796 8.836 11.56 8.66 11.272C8.484 10.976 8.396 10.604 8.396 10.156C8.396 9.652 8.532 9.196 8.804 8.788C9.084 8.38 9.5 8.052 10.052 7.804C10.604 7.556 11.292 7.432 12.116 7.432C12.668 7.432 13.208 7.496 13.736 7.624C14.272 7.744 14.748 7.924 15.164 8.164L14.432 9.928C14.032 9.712 13.636 9.552 13.244 9.448C12.852 9.336 12.472 9.28 12.104 9.28C11.776 9.28 11.512 9.316 11.312 9.388C11.112 9.452 10.968 9.54 10.88 9.652C10.792 9.764 10.748 9.892 10.748 10.036C10.748 10.22 10.832 10.368 11 10.48C11.176 10.584 11.404 10.672 11.684 10.744C11.972 10.808 12.284 10.876 12.62 10.948C12.964 11.02 13.304 11.112 13.64 11.224C13.984 11.328 14.296 11.472 14.576 11.656C14.856 11.832 15.08 12.068 15.248 12.364C15.424 12.652 15.512 13.016 15.512 13.456C15.512 13.944 15.372 14.396 15.092 14.812C14.82 15.22 14.408 15.548 13.856 15.796C13.312 16.044 12.624 16.168 11.792 16.168ZM11.288 17.44V15.724H12.728V17.44H11.288ZM11.288 7.864V6.16H12.728V7.864H11.288Z" fill="#004231"/>
<line x1="2" y1="5" x2="2" y2="9" stroke="#004231" stroke-width="2" stroke-linecap="round"/>
<line x1="6" y1="9" x2="2" y2="9" stroke="#004231" stroke-width="2" stroke-linecap="round"/>
<line x1="18" y1="15" x2="22" y2="15" stroke="#004231" stroke-width="2" stroke-linecap="round"/>
<line x1="22" y1="19" x2="22" y2="15" stroke="#004231" stroke-width="2" stroke-linecap="round"/>
</svg>
