<svg width="24" height="24" viewBox="0 0 24 24" fill="none" xmlns="http://www.w3.org/2000/svg">
<path d="M10.88 13.44L9.16 11.72C9.01333 11.5733 8.82667 11.5 8.6 11.5C8.37333 11.5 8.18667 11.5733 8.04 11.72C7.89333 11.8667 7.82 12.0533 7.82 12.28C7.82 12.5067 7.89333 12.6933 8.04 12.84L10.32 15.12C10.48 15.28 10.6667 15.36 10.88 15.36C11.0933 15.36 11.28 15.28 11.44 15.12L15.96 10.6C16.1067 10.4533 16.18 10.2667 16.18 10.04C16.18 9.81333 16.1067 9.62667 15.96 9.48C15.8133 9.33333 15.6267 9.26 15.4 9.26C15.1733 9.26 14.9867 9.33333 14.84 9.48L10.88 13.44ZM12 20C10.8933 20 9.85333 19.7899 8.88 19.3696C7.90667 18.9493 7.06 18.3795 6.34 17.66C5.62 16.94 5.05013 16.0933 4.6304 15.12C4.21067 14.1467 4.00053 13.1067 4 12C4 10.8933 4.21013 9.85333 4.6304 8.88C5.05067 7.90667 5.62053 7.06 6.34 6.34C7.06 5.62 7.90667 5.05013 8.88 4.6304C9.85333 4.21067 10.8933 4.00053 12 4C13.1067 4 14.1467 4.21013 15.12 4.6304C16.0933 5.05067 16.94 5.62053 17.66 6.34C18.38 7.06 18.9501 7.90667 19.3704 8.88C19.7907 9.85333 20.0005 10.8933 20 12C20 13.1067 19.7899 14.1467 19.3696 15.12C18.9493 16.0933 18.3795 16.94 17.66 17.66C16.94 18.38 16.0933 18.9501 15.12 19.3704C14.1467 19.7907 13.1067 20.0005 12 20Z" fill="#198D47"/>
</svg>
