<svg width="24" height="24" viewBox="0 0 24 24" fill="none" xmlns="http://www.w3.org/2000/svg">
<path d="M12.3846 13.2308C12.5478 13.2308 12.7044 13.1659 12.8198 13.0505C12.9352 12.9351 13 12.7786 13 12.6154C13 12.4522 12.9352 12.2956 12.8198 12.1802C12.7044 12.0648 12.5478 12 12.3846 12C12.2214 12 12.0649 12.0648 11.9495 12.1802C11.8341 12.2956 11.7692 12.4522 11.7692 12.6154C11.7692 12.7786 11.8341 12.9351 11.9495 13.0505C12.0649 13.1659 12.2214 13.2308 12.3846 13.2308Z" fill="#152521"/>
<path d="M13.3077 5.28821V4.92308C13.3077 4.67826 13.2104 4.44347 13.0373 4.27036C12.8642 4.09725 12.6294 4 12.3846 4C12.1398 4 11.905 4.09725 11.7319 4.27036C11.5588 4.44347 11.4615 4.67826 11.4615 4.92308V5.28821C10.2958 5.43447 9.18209 5.85822 8.21395 6.5239L7.8078 6.11528C7.63436 5.94184 7.39913 5.84441 7.15385 5.84441C6.90857 5.84441 6.67334 5.94184 6.4999 6.11528C6.32646 6.28872 6.22903 6.52395 6.22903 6.76923C6.22903 7.01451 6.32646 7.24974 6.4999 7.42318L6.83057 7.75385C5.64917 9.09764 4.99833 10.8261 5 12.6154C5 16.6876 8.31241 20 12.3846 20C16.4568 20 19.7692 16.6876 19.7692 12.6154C19.7692 8.85579 16.945 5.74359 13.3077 5.28821ZM12.3846 14.4615C11.9493 14.4614 11.528 14.3073 11.1951 14.0266C10.8623 13.746 10.6394 13.3567 10.5658 12.9276C10.4922 12.4985 10.5726 12.0572 10.7928 11.6816C11.013 11.306 11.3588 11.0204 11.7692 10.8751V8C11.7692 7.83679 11.8341 7.68026 11.9495 7.56486C12.0649 7.44945 12.2214 7.38462 12.3846 7.38462C12.5478 7.38462 12.7044 7.44945 12.8198 7.56486C12.9352 7.68026 13 7.83679 13 8V10.8751C13.4104 11.0204 13.7563 11.306 13.9765 11.6816C14.1967 12.0572 14.2771 12.4985 14.2034 12.9276C14.1298 13.3567 13.9069 13.746 13.5741 14.0266C13.2413 14.3073 12.82 14.4614 12.3846 14.4615Z" fill="#152521"/>
</svg>
