<svg width="27" height="27" viewBox="0 0 27 27" fill="none" xmlns="http://www.w3.org/2000/svg">
<path d="M21.25 5H5.41667C4.64312 5 3.90125 5.30729 3.35427 5.85427C2.80729 6.40125 2.5 7.14312 2.5 7.91667V18.75C2.5 19.5235 2.80729 20.2654 3.35427 20.8124C3.90125 21.3594 4.64312 21.6667 5.41667 21.6667H21.25C22.0235 21.6667 22.7654 21.3594 23.3124 20.8124C23.8594 20.2654 24.1667 19.5235 24.1667 18.75V7.91667C24.1667 7.14312 23.8594 6.40125 23.3124 5.85427C22.7654 5.30729 22.0235 5 21.25 5Z" stroke="#AAC1BC" stroke-width="1.8" stroke-linecap="round" stroke-linejoin="round"/>
<path d="M2.5 10H24.1667" stroke="#AAC1BC" stroke-width="1.8" stroke-linecap="round" stroke-linejoin="round"/>
<path d="M9.16406 15.6256H6.66406V16.6667H9.16406V15.6256Z" stroke="#AAC1BC" stroke-width="1.8" stroke-linecap="round" stroke-linejoin="round"/>
</svg>
