<svg width="80" height="80" viewBox="0 0 80 80" fill="none" xmlns="http://www.w3.org/2000/svg">
<path d="M46.667 20L70.0003 43.3333L56.667 56.6667" stroke="#00A023" stroke-width="3" stroke-linecap="round" stroke-linejoin="round"/>
<path d="M19.4271 60.5733C20.3024 61.449 21.3418 62.1436 22.4856 62.6175C23.6295 63.0914 24.8556 63.3353 26.0937 63.3353C27.3319 63.3353 28.5579 63.0914 29.7018 62.6175C30.8457 62.1436 31.885 61.449 32.7604 60.5733L68.0471 25.2867C68.6664 24.6676 69.1577 23.9325 69.4929 23.1235C69.8281 22.3145 70.0006 21.4474 70.0006 20.5717C70.0006 19.696 69.8281 18.8288 69.4929 18.0198C69.1577 17.2108 68.6664 16.4758 68.0471 15.8567L64.1437 11.9533C63.5246 11.334 62.7896 10.8427 61.9806 10.5075C61.1716 10.1723 60.3044 9.99976 59.4287 9.99976C58.553 9.99976 57.6859 10.1723 56.8769 10.5075C56.0679 10.8427 55.3328 11.334 54.7137 11.9533L19.4271 47.24C18.5514 48.1154 17.8568 49.1547 17.3829 50.2986C16.909 51.4425 16.665 52.6685 16.665 53.9067C16.665 55.1448 16.909 56.3709 17.3829 57.5148C17.8568 58.6586 18.5514 59.6979 19.4271 60.5733Z" stroke="#00A023" stroke-width="3" stroke-linecap="round" stroke-linejoin="round"/>
<path d="M13.333 66.6666L19.2263 60.7733" stroke="#00A023" stroke-width="3" stroke-linecap="round" stroke-linejoin="round"/>
</svg>
