<svg width="80" height="80" viewBox="0 0 80 80" fill="none" xmlns="http://www.w3.org/2000/svg">
<path d="M30.3437 6.66669H49.657C50.9707 6.66653 52.2715 6.92521 53.4852 7.42795C54.6988 7.93069 55.8016 8.66764 56.7303 9.59669L70.4003 23.2634C71.3312 24.193 72.0694 25.2973 72.5728 26.5127C73.0761 27.7282 73.3347 29.0311 73.3337 30.3467V49.66C73.3338 50.9737 73.0751 52.2745 72.5724 53.4882C72.0697 54.7019 71.3327 55.8046 70.4037 56.7334L56.737 70.4034C55.8081 71.3334 54.705 72.0712 53.4907 72.5745C52.2764 73.0778 50.9748 73.3368 49.6603 73.3367H30.3437C29.0298 73.3364 27.7288 73.0772 26.5151 72.5739C25.3014 72.0706 24.1988 71.333 23.2703 70.4034L9.60033 56.7367C8.66988 55.8074 7.93186 54.7037 7.42852 53.4888C6.92518 52.274 6.6664 50.9717 6.66699 49.6567V30.3434C6.66684 29.0297 6.92552 27.7288 7.42826 26.5152C7.931 25.3015 8.66794 24.1988 9.59699 23.27L23.2637 9.60002C24.1933 8.66918 25.2976 7.93093 26.5131 7.42758C27.7285 6.92422 29.0314 6.66566 30.347 6.66669H30.3437Z" stroke="#00A023" stroke-width="3" stroke-linecap="round" stroke-linejoin="round"/>
<path d="M40 26.6667V40" stroke="#00A023" stroke-width="3" stroke-linecap="round" stroke-linejoin="round"/>
<path d="M40 53.3333H40.0333" stroke="#00A023" stroke-width="3" stroke-linecap="round" stroke-linejoin="round"/>
</svg>
