<svg width="40" height="40" viewBox="0 0 40 40" fill="none" xmlns="http://www.w3.org/2000/svg">
<rect x="15.1719" y="32.7621" width="0.951086" height="6.09524" fill="black"/>
<path d="M15.1719 27.8095L16.123 26.4762V31.8095H15.1719V27.8095Z" fill="black"/>
<rect x="17.2578" y="32.762" width="0.951086" height="6.28571" fill="black"/>
<rect x="17.2578" y="20.1904" width="0.951086" height="11.8095" fill="black"/>
<path d="M19.1562 2.42432L19.9539 1.90485L21.8129 4.76713L21.0153 5.28659L19.1562 2.42432Z" fill="black"/>
<rect x="19.1562" y="20.1904" width="0.951086" height="11.8095" fill="black"/>
<path d="M19.1562 1.14286L20.1073 0V19.0476H19.1562V1.14286Z" fill="black"/>
<path d="M20.875 4.7616H21.8261V19.0473H20.875V4.7616Z" fill="black"/>
<path d="M17.2578 15.0483L18.2089 13.9054V19.0483H17.2578V15.0483Z" fill="black"/>
<rect x="20.875" y="20.1904" width="0.951086" height="11.8095" fill="black"/>
<rect x="22.7812" y="18.2861" width="0.951086" height="13.7143" fill="black"/>
<rect x="19.1562" y="32.7621" width="0.951086" height="6.47619" fill="black"/>
<rect x="20.875" y="32.7621" width="0.951086" height="6.66667" fill="black"/>
<rect x="22.7812" y="32.7621" width="0.951086" height="6.28571" fill="black"/>
<rect x="24.875" y="31.0474" width="0.951086" height="7.80952" fill="black"/>
<rect x="15.1719" y="31.9995" width="0.952381" height="9.89129" transform="rotate(-90 15.1719 31.9995)" fill="black"/>
<rect x="17.2578" y="19.2383" width="0.952381" height="6.27717" transform="rotate(-90 17.2578 19.2383)" fill="black"/>
<rect x="19.1562" y="7.42834" width="0.952773" height="2.66414" transform="rotate(-90 19.1562 7.42834)" fill="black"/>
<path d="M37.7102 22.4762C37.7102 31.9947 30.0046 39.7103 20.5 39.7103C10.9954 39.7103 3.28973 31.9947 3.28973 22.4762C3.28973 12.9577 10.9954 5.24213 20.5 5.24213C30.0046 5.24213 37.7102 12.9577 37.7102 22.4762Z" stroke="black" stroke-width="0.579465"/>
</svg>
