<svg width="32" height="25" viewBox="0 0 32 25" fill="none" xmlns="http://www.w3.org/2000/svg">
<rect y="0.5" width="32" height="24" rx="2" fill="#E6EDEB"/>
<g clip-path="url(#clip0_104_1471)">
<path d="M21.2014 10.2726C21.1202 10.3356 19.6866 11.1434 19.6866 12.9396C19.6866 15.0172 21.5108 15.7522 21.5654 15.7704C21.557 15.8152 21.2756 16.777 20.6036 17.757C20.0044 18.6194 19.3786 19.4804 18.4266 19.4804C17.4746 19.4804 17.2296 18.9274 16.1306 18.9274C15.0596 18.9274 14.6788 19.4986 13.808 19.4986C12.9372 19.4986 12.3296 18.7006 11.631 17.7206C10.8218 16.5698 10.168 14.782 10.168 13.0852C10.168 10.3636 11.9376 8.9202 13.6792 8.9202C14.6046 8.9202 15.376 9.5278 15.957 9.5278C16.51 9.5278 17.3724 8.8838 18.4252 8.8838C18.8242 8.8838 20.2578 8.9202 21.2014 10.2726ZM17.9254 7.7316C18.3608 7.215 18.6688 6.4982 18.6688 5.7814C18.6688 5.682 18.6604 5.5812 18.6422 5.5C17.9338 5.5266 17.091 5.9718 16.5828 6.5612C16.1838 7.0148 15.8114 7.7316 15.8114 8.4582C15.8114 8.5674 15.8296 8.6766 15.838 8.7116C15.8828 8.72 15.9556 8.7298 16.0284 8.7298C16.664 8.7298 17.4634 8.3042 17.9254 7.7316Z" fill="#152521"/>
</g>
<defs>
<clipPath id="clip0_104_1471">
<rect width="14" height="14" fill="white" transform="translate(9 5.5)"/>
</clipPath>
</defs>
</svg>
