<svg width="32" height="25" viewBox="0 0 32 25" fill="none" xmlns="http://www.w3.org/2000/svg">
<rect y="0.5" width="32" height="24" rx="2" fill="#E6EDEB"/>
<path d="M22.16 12.6458C22.16 12.1908 22.1192 11.7533 22.0433 11.3333H16V13.8183H19.4533C19.3017 14.6175 18.8467 15.2941 18.1642 15.7491V17.365H20.2467C21.46 16.245 22.16 14.6 22.16 12.6458Z" fill="#4285F4"/>
<path d="M16.0018 18.9166C17.7343 18.9166 19.1868 18.345 20.2484 17.365L18.1659 15.7491C17.5943 16.1341 16.8651 16.3675 16.0018 16.3675C14.3334 16.3675 12.9159 15.2416 12.4084 13.725H10.2734V15.3816C11.3293 17.4758 13.4934 18.9166 16.0018 18.9166Z" fill="#34A853"/>
<path d="M12.4054 13.7191C12.277 13.3341 12.2012 12.9258 12.2012 12.5C12.2012 12.0741 12.277 11.6658 12.4054 11.2808V9.62415H10.2704C9.83286 10.4875 9.58203 11.4616 9.58203 12.5C9.58203 13.5383 9.83286 14.5125 10.2704 15.3758L11.9329 14.0808L12.4054 13.7191Z" fill="#FBBC05"/>
<path d="M16.0018 8.63837C16.9468 8.63837 17.7868 8.96504 18.4576 9.59504L20.2951 7.75754C19.1809 6.71921 17.7343 6.08337 16.0018 6.08337C13.4934 6.08337 11.3293 7.52421 10.2734 9.62421L12.4084 11.2809C12.9159 9.76421 14.3334 8.63837 16.0018 8.63837Z" fill="#EA4335"/>
</svg>
