<svg width="32" height="25" viewBox="0 0 32 25" fill="none" xmlns="http://www.w3.org/2000/svg">
<rect y="0.5" width="32" height="24" rx="2" fill="#E6EDEB"/>
<g clip-path="url(#clip0_104_1487)">
<path d="M10.9987 10.8334C10.082 10.8334 9.33203 11.5834 9.33203 12.5C9.33203 13.4167 10.082 14.1667 10.9987 14.1667C11.9154 14.1667 12.6654 13.4167 12.6654 12.5C12.6654 11.5834 11.9154 10.8334 10.9987 10.8334ZM20.9987 10.8334C20.082 10.8334 19.332 11.5834 19.332 12.5C19.332 13.4167 20.082 14.1667 20.9987 14.1667C21.9154 14.1667 22.6654 13.4167 22.6654 12.5C22.6654 11.5834 21.9154 10.8334 20.9987 10.8334ZM15.9987 10.8334C15.082 10.8334 14.332 11.5834 14.332 12.5C14.332 13.4167 15.082 14.1667 15.9987 14.1667C16.9154 14.1667 17.6654 13.4167 17.6654 12.5C17.6654 11.5834 16.9154 10.8334 15.9987 10.8334Z" fill="#152521"/>
</g>
<defs>
<clipPath id="clip0_104_1487">
<rect width="20" height="20" fill="white" transform="translate(6 2.5)"/>
</clipPath>
</defs>
</svg>
