<svg width="32" height="25" viewBox="0 0 32 25" fill="none" xmlns="http://www.w3.org/2000/svg">
<rect y="0.5" width="32" height="24" rx="2" fill="#E6EDEB"/>
<g clip-path="url(#clip0_104_1444)">
<path d="M14.667 15.8793H13.0469L14.0602 9.61353H15.6803L14.667 15.8793Z" fill="#00579F"/>
<path d="M20.5397 9.76676C20.2201 9.63998 19.7132 9.5 19.0865 9.5C17.4866 9.5 16.3599 10.3532 16.353 11.573C16.3397 12.4729 17.1597 12.9728 17.7729 13.2728C18.3997 13.5795 18.6128 13.7796 18.6128 14.0529C18.6064 14.4727 18.1063 14.6662 17.6399 14.6662C16.993 14.6662 16.6464 14.5664 16.1197 14.3329L15.9064 14.2328L15.6797 15.6393C16.0597 15.8124 16.7598 15.966 17.4866 15.9728C19.1866 15.9728 20.2933 15.1328 20.3064 13.8329C20.3129 13.1196 19.8799 12.5731 18.9465 12.1265C18.3798 11.8398 18.0328 11.6465 18.0328 11.3531C18.0394 11.0865 18.3263 10.8133 18.9659 10.8133C19.4926 10.8 19.8796 10.9266 20.1728 11.0533L20.3193 11.1198L20.5397 9.76676Z" fill="#00579F"/>
<path d="M22.6941 13.6596C22.8275 13.2996 23.341 11.9065 23.341 11.9065C23.3342 11.9198 23.4741 11.5399 23.5541 11.3066L23.6673 11.8465C23.6673 11.8465 23.9741 13.3463 24.0408 13.6596C23.7876 13.6596 23.0141 13.6596 22.6941 13.6596ZM24.694 9.61353H23.4408C23.0544 9.61353 22.7607 9.72675 22.594 10.1334L20.1875 15.8792H21.8875C21.8875 15.8792 22.1673 15.1059 22.2275 14.9393C22.414 14.9393 24.0677 14.9393 24.3076 14.9393C24.3541 15.1593 24.5009 15.8792 24.5009 15.8792H26.001L24.694 9.61353Z" fill="#00579F"/>
<path d="M11.6914 9.61353L10.1047 13.8862L9.93136 13.0197C9.63802 12.0198 8.71805 10.9334 7.69141 10.3933L9.14472 15.8727H10.858L13.4046 9.61353H11.6914Z" fill="#00579F"/>
<path d="M8.63331 9.61359H6.02667L6 9.74019C8.03335 10.2602 9.37999 11.5135 9.93327 13.02L9.36662 10.1403C9.27333 9.7401 8.98663 9.62679 8.63331 9.61359Z" fill="#FAA61A"/>
</g>
<defs>
<clipPath id="clip0_104_1444">
<rect width="20" height="6.47276" fill="white" transform="translate(6 9.5)"/>
</clipPath>
</defs>
</svg>
