<svg width="224" height="40" viewBox="0 0 224 40" fill="none" xmlns="http://www.w3.org/2000/svg">
<g id="Badges">
<g id="&#60;Group&#62;">
<g id="&#60;Group&#62;_2">
<g id="&#60;Group&#62;_3">
<path id="&#60;Path&#62;" d="M75.7973 20.5804C75.8081 19.7457 76.0298 18.9273 76.4418 18.2014C76.8538 17.4754 77.4428 16.8655 78.1539 16.4283C77.7021 15.7831 77.1062 15.2522 76.4134 14.8776C75.7205 14.5031 74.9499 14.2952 74.1627 14.2706C72.4835 14.0944 70.8555 15.2754 69.9998 15.2754C69.1275 15.2754 67.81 14.2881 66.3913 14.3173C65.4736 14.347 64.5793 14.6138 63.7954 15.0919C63.0115 15.5699 62.3649 16.2429 61.9184 17.0452C59.9844 20.3936 61.427 25.3146 63.2796 28.0213C64.2065 29.3466 65.2898 30.8271 66.7072 30.7746C68.0943 30.717 68.6123 29.8901 70.2866 29.8901C71.9454 29.8901 72.4314 30.7746 73.8776 30.7412C75.366 30.717 76.3038 29.4099 77.1981 28.072C77.8641 27.1277 78.3766 26.084 78.7166 24.9795C77.8518 24.6138 77.1139 24.0016 76.5948 23.2193C76.0757 22.437 75.7983 21.5192 75.7973 20.5804Z" fill="#536460"/>
<path id="&#60;Path&#62;_2" d="M73.0649 12.4906C73.8764 11.5164 74.2763 10.2642 74.1794 9C72.9396 9.13022 71.7943 9.72278 70.9719 10.6596C70.5697 11.1173 70.2617 11.6497 70.0655 12.2265C69.8692 12.8033 69.7886 13.413 69.8281 14.021C70.4483 14.0274 71.0618 13.893 71.6225 13.6279C72.1831 13.3628 72.6763 12.9739 73.0649 12.4906Z" fill="#536460"/>
</g>
</g>
<g id="Group">
<path id="Vector" d="M94.9043 23.5484H90.1709L89.0342 26.9048H87.0293L91.5127 14.4868H93.5957L98.0791 26.9048H96.04L94.9043 23.5484ZM90.6611 21.9995H94.4131L92.5635 16.5523H92.5118L90.6611 21.9995Z" fill="#536460"/>
<path id="Vector_2" d="M107.761 22.3784C107.761 25.1919 106.255 26.9995 103.982 26.9995C103.407 27.0296 102.834 26.897 102.331 26.6168C101.827 26.3367 101.412 25.9204 101.134 25.4155H101.091V29.8999H99.2324V17.851H101.031V19.3569H101.065C101.356 18.8544 101.778 18.4402 102.286 18.1584C102.793 17.8766 103.368 17.7376 103.948 17.7563C106.246 17.7563 107.761 19.5727 107.761 22.3784ZM105.851 22.3784C105.851 20.5454 104.903 19.3403 103.458 19.3403C102.038 19.3403 101.083 20.5708 101.083 22.3784C101.083 24.2026 102.038 25.4243 103.458 25.4243C104.903 25.4243 105.851 24.228 105.851 22.3784Z" fill="#536460"/>
<path id="Vector_3" d="M117.726 22.3785C117.726 25.192 116.22 26.9996 113.947 26.9996C113.372 27.0297 112.799 26.8971 112.295 26.617C111.792 26.3368 111.377 25.9205 111.099 25.4156H111.056V29.9H109.197V17.8512H110.996V19.357H111.03C111.321 18.8545 111.743 18.4404 112.251 18.1585C112.758 17.8767 113.333 17.7377 113.913 17.7564C116.211 17.7564 117.726 19.5728 117.726 22.3785ZM115.815 22.3785C115.815 20.5455 114.868 19.3404 113.423 19.3404C112.003 19.3404 111.048 20.5709 111.048 22.3785C111.048 24.2027 112.003 25.4244 113.423 25.4244C114.868 25.4244 115.815 24.2281 115.815 22.3785H115.815Z" fill="#536460"/>
<path id="Vector_4" d="M124.313 23.4449C124.45 24.6763 125.647 25.4849 127.281 25.4849C128.848 25.4849 129.975 24.6763 129.975 23.5659C129.975 22.6021 129.295 22.0249 127.686 21.6294L126.076 21.2417C123.796 20.6909 122.737 19.6245 122.737 17.894C122.737 15.7515 124.605 14.2798 127.256 14.2798C129.88 14.2798 131.679 15.7515 131.739 17.894H129.863C129.751 16.6548 128.727 15.9067 127.229 15.9067C125.732 15.9067 124.708 16.6636 124.708 17.7651C124.708 18.6431 125.362 19.1597 126.963 19.5551L128.331 19.8911C130.879 20.4936 131.938 21.5171 131.938 23.3335C131.938 25.6567 130.087 27.1118 127.144 27.1118C124.39 27.1118 122.53 25.6909 122.41 23.4448L124.313 23.4449Z" fill="#536460"/>
<path id="Vector_5" d="M135.947 15.7085V17.8511H137.669V19.3228H135.947V24.314C135.947 25.0894 136.292 25.4507 137.049 25.4507C137.253 25.4471 137.457 25.4328 137.66 25.4077V26.8706C137.32 26.9342 136.974 26.9629 136.628 26.9565C134.795 26.9565 134.08 26.268 134.08 24.5122V19.3228H132.764V17.8511H134.08V15.7085H135.947Z" fill="#536460"/>
<path id="Vector_6" d="M138.668 22.3784C138.668 19.5298 140.346 17.7397 142.962 17.7397C145.587 17.7397 147.257 19.5297 147.257 22.3784C147.257 25.2349 145.596 27.0171 142.962 27.0171C140.329 27.0171 138.668 25.2349 138.668 22.3784ZM145.363 22.3784C145.363 20.4243 144.468 19.271 142.962 19.271C141.456 19.271 140.562 20.4331 140.562 22.3784C140.562 24.3403 141.456 25.4849 142.962 25.4849C144.468 25.4849 145.363 24.3403 145.363 22.3784H145.363Z" fill="#536460"/>
<path id="Vector_7" d="M148.787 17.8512H150.56V19.3922H150.603C150.722 18.9109 151.004 18.4856 151.401 18.1877C151.798 17.8898 152.285 17.7375 152.78 17.7565C152.994 17.7557 153.208 17.779 153.417 17.8258V19.5641C153.147 19.4815 152.865 19.4435 152.582 19.4518C152.312 19.4408 152.043 19.4884 151.793 19.5913C151.543 19.6942 151.319 19.8499 151.135 20.0478C150.951 20.2457 150.812 20.4811 150.727 20.7377C150.643 20.9944 150.615 21.2663 150.646 21.5348V26.9049H148.787L148.787 17.8512Z" fill="#536460"/>
<path id="Vector_8" d="M161.985 24.2456C161.735 25.8892 160.135 27.0171 158.087 27.0171C155.453 27.0171 153.818 25.2524 153.818 22.4214C153.818 19.5815 155.462 17.7397 158.009 17.7397C160.514 17.7397 162.089 19.4604 162.089 22.2056V22.8423H155.694V22.9546C155.665 23.2878 155.707 23.6235 155.817 23.9393C155.927 24.2551 156.103 24.5439 156.333 24.7865C156.564 25.029 156.843 25.2198 157.153 25.3461C157.463 25.4724 157.796 25.5313 158.13 25.519C158.569 25.5602 159.01 25.4585 159.386 25.229C159.763 24.9996 160.056 24.6547 160.221 24.2456L161.985 24.2456ZM155.703 21.5435H160.229C160.246 21.2439 160.201 20.944 160.096 20.6628C159.991 20.3816 159.83 20.1251 159.621 19.9093C159.413 19.6936 159.162 19.5232 158.884 19.409C158.607 19.2948 158.309 19.2392 158.009 19.2456C157.706 19.2438 157.406 19.3019 157.126 19.4167C156.846 19.5314 156.592 19.7005 156.377 19.9141C156.163 20.1278 155.993 20.3817 155.877 20.6614C155.762 20.941 155.702 21.2408 155.703 21.5435V21.5435Z" fill="#536460"/>
</g>
</g>
<rect x="0.5" y="0.5" width="223" height="39" rx="4.5" stroke="#536460"/>
</g>
</svg>
