<svg width="256" height="32" viewBox="0 0 256 32" fill="none" xmlns="http://www.w3.org/2000/svg">
<path d="M96.1741 16.3101C96.1837 15.567 96.3811 14.8384 96.7479 14.192C97.1147 13.5457 97.6391 13.0027 98.2722 12.6135C97.87 12.0391 97.3394 11.5664 96.7226 11.2329C96.1058 10.8995 95.4197 10.7144 94.7188 10.6925C93.2238 10.5356 91.7744 11.5871 91.0126 11.5871C90.236 11.5871 89.063 10.7081 87.7999 10.734C86.9829 10.7604 86.1867 10.998 85.4888 11.4236C84.7909 11.8493 84.2151 12.4484 83.8177 13.1627C82.0958 16.1438 83.3801 20.525 85.0295 22.9348C85.8548 24.1147 86.8192 25.4328 88.0812 25.386C89.3161 25.3348 89.7773 24.5986 91.2679 24.5986C92.7447 24.5986 93.1775 25.386 94.465 25.3563C95.7901 25.3348 96.625 24.1711 97.4213 22.98C98.0142 22.1392 98.4705 21.21 98.7731 20.2267C98.0033 19.9011 97.3463 19.356 96.8841 18.6596C96.422 17.9631 96.175 17.146 96.1741 16.3101Z" fill="#536460"/>
<path d="M93.742 9.10772C94.4645 8.24038 94.8204 7.12555 94.7343 6C93.6304 6.11594 92.6108 6.64349 91.8785 7.47756C91.5205 7.88502 91.2463 8.35905 91.0716 8.87255C90.8969 9.38606 90.8251 9.92896 90.8603 10.4702C91.4124 10.4759 91.9586 10.3562 92.4578 10.1202C92.9569 9.88422 93.396 9.53803 93.742 9.10772Z" fill="#536460"/>
<path d="M113.185 18.9524H108.971L107.959 21.9407H106.174L110.165 10.8849H112.02L116.012 21.9407H114.196L113.185 18.9524ZM109.407 17.5735H112.748L111.101 12.7238H111.055L109.407 17.5735Z" fill="#536460"/>
<path d="M124.632 17.9109C124.632 20.4157 123.291 22.025 121.268 22.025C120.756 22.0519 120.246 21.9338 119.797 21.6844C119.349 21.435 118.98 21.0643 118.732 20.6148H118.694V24.6073H117.039V13.8801H118.641V15.2208H118.671C118.93 14.7735 119.306 14.4047 119.757 14.1538C120.209 13.9028 120.721 13.7791 121.238 13.7958C123.283 13.7958 124.632 15.413 124.632 17.9109ZM122.931 17.9109C122.931 16.2789 122.088 15.206 120.801 15.206C119.537 15.206 118.687 16.3015 118.687 17.9109C118.687 19.535 119.537 20.6226 120.801 20.6226C122.088 20.6226 122.931 19.5576 122.931 17.9109Z" fill="#536460"/>
<path d="M133.503 17.911C133.503 20.4158 132.162 22.0252 130.139 22.0252C129.627 22.052 129.117 21.9339 128.668 21.6845C128.22 21.4351 127.851 21.0644 127.603 20.6149H127.565V24.6074H125.91V13.8803H127.512V15.2209H127.542C127.801 14.7736 128.177 14.4048 128.629 14.1539C129.08 13.903 129.592 13.7793 130.109 13.7959C132.154 13.7959 133.503 15.4131 133.503 17.911ZM131.802 17.911C131.802 16.279 130.959 15.2061 129.672 15.2061C128.408 15.2061 127.558 16.3016 127.558 17.911C127.558 19.5351 128.408 20.6228 129.672 20.6228C130.959 20.6228 131.802 19.5577 131.802 17.911H131.802Z" fill="#536460"/>
<path d="M139.368 18.8604C139.49 19.9568 140.555 20.6766 142.011 20.6766C143.405 20.6766 144.409 19.9567 144.409 18.9682C144.409 18.11 143.803 17.5962 142.371 17.2441L140.938 16.8989C138.908 16.4086 137.965 15.4591 137.965 13.9185C137.965 12.0109 139.627 10.7007 141.988 10.7007C144.324 10.7007 145.926 12.0109 145.98 13.9185H144.309C144.209 12.8152 143.297 12.1492 141.965 12.1492C140.632 12.1492 139.72 12.823 139.72 13.8037C139.72 14.5853 140.302 15.0453 141.727 15.3974L142.945 15.6965C145.214 16.2329 146.156 17.1441 146.156 18.7612C146.156 20.8296 144.508 22.1251 141.888 22.1251C139.436 22.1251 137.781 20.86 137.674 18.8603L139.368 18.8604Z" fill="#536460"/>
<path d="M149.727 11.9727V13.8802H151.26V15.1905H149.727V19.6342C149.727 20.3245 150.034 20.6462 150.708 20.6462C150.89 20.643 151.071 20.6302 151.252 20.6079V21.9103C150.949 21.9669 150.641 21.9926 150.333 21.9868C148.701 21.9868 148.065 21.3739 148.065 19.8106V15.1905H146.893V13.8802H148.065V11.9727H149.727Z" fill="#536460"/>
<path d="M152.148 17.9108C152.148 15.3747 153.642 13.781 155.971 13.781C158.308 13.781 159.795 15.3747 159.795 17.9108C159.795 20.454 158.316 22.0407 155.971 22.0407C153.627 22.0407 152.148 20.4539 152.148 17.9108ZM158.109 17.9108C158.109 16.1711 157.312 15.1443 155.971 15.1443C154.631 15.1443 153.834 16.1789 153.834 17.9108C153.834 19.6575 154.631 20.6765 155.971 20.6765C157.312 20.6765 158.109 19.6575 158.109 17.9108H158.109Z" fill="#536460"/>
<path d="M161.158 13.8803H162.736V15.2523H162.775C162.881 14.8238 163.132 14.4451 163.485 14.1799C163.838 13.9147 164.272 13.7791 164.713 13.796C164.904 13.7953 165.094 13.816 165.28 13.8577V15.4053C165.04 15.3317 164.788 15.298 164.537 15.3053C164.296 15.2956 164.057 15.3379 163.834 15.4295C163.612 15.5211 163.412 15.6598 163.248 15.836C163.084 16.0122 162.961 16.2217 162.886 16.4502C162.81 16.6787 162.786 16.9208 162.813 17.1598V21.9409H161.158L161.158 13.8803Z" fill="#536460"/>
<path d="M172.908 19.5732C172.685 21.0365 171.26 22.0407 169.437 22.0407C167.092 22.0407 165.637 20.4696 165.637 17.9491C165.637 15.4208 167.1 13.781 169.367 13.781C171.598 13.781 173 15.313 173 17.7569V18.3238H167.307V18.4238C167.281 18.7205 167.318 19.0193 167.416 19.3005C167.514 19.5817 167.671 19.8388 167.876 20.0547C168.081 20.2707 168.33 20.4405 168.605 20.553C168.881 20.6654 169.178 20.7179 169.475 20.707C169.866 20.7436 170.259 20.653 170.594 20.4488C170.929 20.2445 171.19 19.9374 171.337 19.5732L172.908 19.5732ZM167.315 17.1675H171.345C171.359 16.9007 171.319 16.6338 171.226 16.3835C171.133 16.1331 170.989 15.9047 170.803 15.7126C170.617 15.5205 170.394 15.3688 170.147 15.2672C169.9 15.1655 169.635 15.1159 169.367 15.1217C169.098 15.1201 168.831 15.1718 168.582 15.274C168.332 15.3762 168.106 15.5267 167.915 15.7169C167.724 15.9071 167.573 16.1332 167.47 16.3822C167.367 16.6311 167.314 16.898 167.315 17.1675V17.1675Z" fill="#536460"/>
<rect x="0.5" y="0.5" width="255" height="31" rx="4.5" stroke="#536460"/>
</svg>
