<svg width="24" height="24" viewBox="0 0 24 24" fill="none" xmlns="http://www.w3.org/2000/svg">
<g id="Frame">
<path id="Vector" d="M12 4C11.8256 4 11.6544 4.0016 11.4864 4.004L10.9936 4.0176L10.7544 4.028L10.2912 4.0552L9.8488 4.092C6.0208 4.4632 4.4632 6.0208 4.092 9.8488L4.0552 10.2912L4.028 10.7544C4.024 10.8328 4.02 10.9128 4.0176 10.9936L4.004 11.4864L4.0008 11.7408L4 12C4 12.1744 4.0016 12.3456 4.004 12.5136L4.0176 13.0064L4.028 13.2456L4.0552 13.7088L4.092 14.1512C4.4632 17.9792 6.0208 19.5368 9.8488 19.908L10.2912 19.9448L10.7544 19.972C10.8328 19.976 10.9128 19.98 10.9936 19.9824L11.4864 19.996L12 20L12.5136 19.996L13.0064 19.9824L13.2456 19.972L13.7088 19.9448L14.1512 19.908C17.9792 19.5368 19.5368 17.9792 19.908 14.1512L19.9448 13.7088L19.972 13.2456C19.976 13.1672 19.98 13.0872 19.9824 13.0064L19.996 12.5136L20 12L19.996 11.4864L19.9824 10.9936L19.972 10.7544L19.9448 10.2912L19.908 9.8488C19.5368 6.0208 17.9792 4.4632 14.1512 4.092L13.7088 4.0552L13.2456 4.028C13.1659 4.02411 13.0862 4.02064 13.0064 4.0176L12.5136 4.004L12.2592 4.0008L12 4ZM12 7.2C12.6122 7.19997 13.2012 7.43386 13.6466 7.85383C14.092 8.27379 14.3601 8.84809 14.396 9.4592L14.4 9.6V10.4C14.8037 10.3999 15.1925 10.5523 15.4884 10.8268C15.7844 11.1013 15.9657 11.4775 15.996 11.88L16 12V14.4C16.0001 14.8037 15.8477 15.1925 15.5732 15.4884C15.2987 15.7844 14.9225 15.9657 14.52 15.996L14.4 16H9.6C9.19634 16.0001 8.80755 15.8477 8.51156 15.5732C8.21558 15.2987 8.03427 14.9225 8.004 14.52L8 14.4V12C7.99987 11.5963 8.15233 11.2075 8.4268 10.9116C8.70127 10.6156 9.07748 10.4343 9.48 10.404L9.6 10.4V9.6C9.6 8.96348 9.85286 8.35303 10.3029 7.90294C10.753 7.45286 11.3635 7.2 12 7.2ZM14.4 12H9.6V14.4H14.4V12ZM12 8.8C11.8041 8.80003 11.6149 8.87196 11.4685 9.00217C11.3221 9.13238 11.2285 9.3118 11.2056 9.5064L11.2 9.6V10.4H12.8V9.6C12.8 9.38783 12.7157 9.18434 12.5657 9.03431C12.4157 8.88429 12.2122 8.8 12 8.8Z" fill="white"/>
</g>
</svg>
