<svg width="24" height="25" viewBox="0 0 24 25" fill="none" xmlns="http://www.w3.org/2000/svg">
<path d="M12 21.5V8.5C12 7.70888 11.7654 6.93552 11.3259 6.27772C10.8864 5.61992 10.2616 5.10723 9.53074 4.80448C8.79983 4.50173 7.99556 4.42252 7.21964 4.57686C6.44372 4.7312 5.73098 5.11216 5.17157 5.67157C4.61216 6.23098 4.2312 6.94372 4.07686 7.71964C3.92252 8.49556 4.00173 9.29983 4.30448 10.0307C4.60723 10.7616 5.11992 11.3864 5.77772 11.8259C6.43552 12.2654 7.20888 12.5 8 12.5H21" stroke="#152521" stroke-width="2" stroke-linecap="round" stroke-linejoin="round"/>
<path d="M17 16.5L21 12.5L17 8.5" stroke="#152521" stroke-width="2" stroke-linecap="round" stroke-linejoin="round"/>
</svg>
