<svg width="16" height="16" viewBox="0 0 16 16" fill="none" xmlns="http://www.w3.org/2000/svg">
<path d="M2 5.33331C2 4.80288 2.21071 4.29417 2.58579 3.9191C2.96086 3.54403 3.46957 3.33331 4 3.33331H12C12.5304 3.33331 13.0391 3.54403 13.4142 3.9191C13.7893 4.29417 14 4.80288 14 5.33331V10.6666C14 11.1971 13.7893 11.7058 13.4142 12.0809C13.0391 12.4559 12.5304 12.6666 12 12.6666H4C3.46957 12.6666 2.96086 12.4559 2.58579 12.0809C2.21071 11.7058 2 11.1971 2 10.6666V5.33331Z" stroke="#536460" stroke-linecap="round" stroke-linejoin="round"/>
<path d="M2 6.66669H14" stroke="#536460" stroke-linecap="round" stroke-linejoin="round"/>
<path d="M4.6665 10H4.67317" stroke="#536460" stroke-linecap="round" stroke-linejoin="round"/>
<path d="M7.3335 10H8.66683" stroke="#536460" stroke-linecap="round" stroke-linejoin="round"/>
</svg>
