<svg width="16" height="16" viewBox="0 0 16 16" fill="none" xmlns="http://www.w3.org/2000/svg">
<path d="M6.88 9.44012L5.16 7.72012C5.01333 7.57345 4.82667 7.50012 4.6 7.50012C4.37333 7.50012 4.18667 7.57345 4.04 7.72012C3.89333 7.86679 3.82 8.05346 3.82 8.28012C3.82 8.50679 3.89333 8.69346 4.04 8.84012L6.32 11.1201C6.48 11.2801 6.66667 11.3601 6.88 11.3601C7.09333 11.3601 7.28 11.2801 7.44 11.1201L11.96 6.60012C12.1067 6.45346 12.18 6.26679 12.18 6.04012C12.18 5.81346 12.1067 5.62679 11.96 5.48012C11.8133 5.33346 11.6267 5.26012 11.4 5.26012C11.1733 5.26012 10.9867 5.33346 10.84 5.48012L6.88 9.44012ZM8 16.0001C6.89333 16.0001 5.85333 15.79 4.88 15.3697C3.90667 14.9495 3.06 14.3796 2.34 13.6601C1.62 12.9401 1.05013 12.0935 0.6304 11.1201C0.210667 10.1468 0.000533333 9.10679 0 8.00012C0 6.89345 0.210133 5.85346 0.6304 4.88012C1.05067 3.90679 1.62053 3.06012 2.34 2.34012C3.06 1.62012 3.90667 1.05026 4.88 0.630522C5.85333 0.210789 6.89333 0.000655404 8 0.00012207C9.10667 0.00012207 10.1467 0.210255 11.12 0.630522C12.0933 1.05079 12.94 1.62066 13.66 2.34012C14.38 3.06012 14.9501 3.90679 15.3704 4.88012C15.7907 5.85346 16.0005 6.89345 16 8.00012C16 9.10679 15.7899 10.1468 15.3696 11.1201C14.9493 12.0935 14.3795 12.9401 13.66 13.6601C12.94 14.3801 12.0933 14.9503 11.12 15.3705C10.1467 15.7908 9.10667 16.0007 8 16.0001Z" fill="#004231"/>
</svg>
