<svg width="23" height="16" viewBox="0 0 23 16" fill="none" xmlns="http://www.w3.org/2000/svg">
<rect width="22.4" height="16" rx="2" fill="white"/>
<mask id="mask0_1726_9722" style="mask-type:luminance" maskUnits="userSpaceOnUse" x="0" y="0" width="23" height="16">
<rect width="22.4" height="16" rx="2" fill="white"/>
</mask>
<g mask="url(#mask0_1726_9722)">
<rect width="22.4" height="16" fill="#0A17A7"/>
<path fill-rule="evenodd" clip-rule="evenodd" d="M-1.02605 -1.5332L8.53326 4.91463V-1.06671H13.8666V4.91463L23.4259 -1.5332L24.6188 0.23541L17.0609 5.33329H22.3999V10.6666H17.0609L24.6188 15.7645L23.4259 17.5331L13.8666 11.0853V17.0666H8.53326V11.0853L-1.02605 17.5331L-2.21899 15.7645L5.33892 10.6666H-7.41482e-05V5.33329H5.33892L-2.21899 0.23541L-1.02605 -1.5332Z" fill="white"/>
<path d="M14.9343 5.06566L25.0666 -1.6001" stroke="#DB1F35" stroke-width="0.666667" stroke-linecap="round"/>
<path d="M16.0103 10.9581L25.0933 17.0803" stroke="#DB1F35" stroke-width="0.666667" stroke-linecap="round"/>
<path d="M6.40435 5.04849L-3.07007 -1.33667" stroke="#DB1F35" stroke-width="0.666667" stroke-linecap="round"/>
<path d="M7.43195 10.8839L-3.07007 17.8484" stroke="#DB1F35" stroke-width="0.666667" stroke-linecap="round"/>
<path fill-rule="evenodd" clip-rule="evenodd" d="M0 9.6H9.6V16H12.8V9.6H22.4V6.4H12.8V0H9.6V6.4H0V9.6Z" fill="#E6273E"/>
</g>
</svg>
