<svg width="24" height="24" viewBox="0 0 24 24" fill="none" xmlns="http://www.w3.org/2000/svg">
<rect width="24" height="24" rx="4" fill="#536460"/>
<path d="M10.6665 12.3333C10.6665 12.687 10.807 13.0261 11.057 13.2761C11.3071 13.5262 11.6462 13.6667 11.9998 13.6667C12.3535 13.6667 12.6926 13.5262 12.9426 13.2761C13.1927 13.0261 13.3332 12.687 13.3332 12.3333C13.3332 11.9797 13.1927 11.6406 12.9426 11.3905C12.6926 11.1405 12.3535 11 11.9998 11C11.6462 11 11.3071 11.1405 11.057 11.3905C10.807 11.6406 10.6665 11.9797 10.6665 12.3333Z" stroke="white" stroke-width="1.5" stroke-linecap="round" stroke-linejoin="round"/>
<path d="M18 12C16.4 14.6667 14.4 16 12 16C9.6 16 7.6 14.6667 6 12C7.6 9.33333 9.6 8 12 8C14.4 8 16.4 9.33333 18 12Z" stroke="white" stroke-width="1.5" stroke-linecap="round" stroke-linejoin="round"/>
</svg>
