<svg width="25" height="24" viewBox="0 0 25 24" fill="none" xmlns="http://www.w3.org/2000/svg">
<path d="M15.5 8H15.51" stroke="#2C3E50" stroke-width="2" stroke-linecap="round" stroke-linejoin="round"/>
<path d="M13 21H6.5C5.70435 21 4.94129 20.6839 4.37868 20.1213C3.81607 19.5587 3.5 18.7956 3.5 18V6C3.5 5.20435 3.81607 4.44129 4.37868 3.87868C4.94129 3.31607 5.70435 3 6.5 3H18.5C19.2956 3 20.0587 3.31607 20.6213 3.87868C21.1839 4.44129 21.5 5.20435 21.5 6V12.5" stroke="#2C3E50" stroke-width="2" stroke-linecap="round" stroke-linejoin="round"/>
<path d="M3.5 15.9998L8.5 10.9998C9.428 10.1068 10.572 10.1068 11.5 10.9998L15.5 14.9998" stroke="#2C3E50" stroke-width="2" stroke-linecap="round" stroke-linejoin="round"/>
<path d="M14.5 13.9998L15.5 12.9998C16.153 12.3708 16.913 12.1848 17.63 12.4408" stroke="#2C3E50" stroke-width="2" stroke-linecap="round" stroke-linejoin="round"/>
<path d="M19.5 16V22" stroke="#2C3E50" stroke-width="2" stroke-linecap="round" stroke-linejoin="round"/>
<path d="M22.5 19L19.5 22L16.5 19" stroke="#2C3E50" stroke-width="2" stroke-linecap="round" stroke-linejoin="round"/>
</svg>
