<svg width="22" height="23" viewBox="0 0 22 23" fill="none" xmlns="http://www.w3.org/2000/svg">
<path d="M13.897 0.5C14.8797 0.499947 15.8279 0.861607 16.561 1.516L16.726 1.672L20.826 5.772C21.5225 6.46711 21.9383 7.39456 21.994 8.377L22 8.604V14.398C22.0001 15.3807 21.6384 16.3289 20.984 17.062L20.828 17.227L16.728 21.327C16.0334 22.0231 15.1067 22.4389 14.125 22.495L13.898 22.501H8.103C7.1202 22.5009 6.17186 22.1388 5.439 21.484L5.274 21.328L1.174 17.228C0.477724 16.5331 0.0619015 15.6061 0.00600005 14.624L5.85011e-09 14.397V8.603C-5.3111e-05 7.62035 0.361607 6.67206 1.016 5.939L1.172 5.774L5.272 1.674C5.96711 0.9775 6.89456 0.56166 7.877 0.506L8.104 0.5H13.897ZM11.01 14.5L10.883 14.507C10.64 14.5359 10.4159 14.653 10.2534 14.836C10.0909 15.019 10.0011 15.2552 10.0011 15.5C10.0011 15.7448 10.0909 15.981 10.2534 16.164C10.4159 16.347 10.64 16.4641 10.883 16.493L11 16.5L11.127 16.493C11.3701 16.4641 11.5941 16.347 11.7566 16.164C11.9191 15.981 12.0089 15.7448 12.0089 15.5C12.0089 15.2552 11.9191 15.019 11.7566 14.836C11.5941 14.653 11.3701 14.5359 11.127 14.507L11.01 14.5ZM11 6.5C10.7551 6.50003 10.5187 6.58996 10.3356 6.75272C10.1526 6.91547 10.0357 7.13975 10.007 7.383L10 7.5V11.5L10.007 11.617C10.0359 11.86 10.153 12.0841 10.336 12.2466C10.519 12.4091 10.7552 12.4989 11 12.4989C11.2448 12.4989 11.481 12.4091 11.664 12.2466C11.847 12.0841 11.9641 11.86 11.993 11.617L12 11.5V7.5L11.993 7.383C11.9643 7.13975 11.8474 6.91547 11.6644 6.75272C11.4813 6.58996 11.2449 6.50003 11 6.5Z" fill="#00A023"/>
</svg>
