<svg width="24" height="25" viewBox="0 0 24 25" fill="none" xmlns="http://www.w3.org/2000/svg">
<path d="M17 17.5H19C19.5304 17.5 20.0391 17.2893 20.4142 16.9142C20.7893 16.5391 21 16.0304 21 15.5V11.5C21 10.9696 20.7893 10.4609 20.4142 10.0858C20.0391 9.71071 19.5304 9.5 19 9.5H5C4.46957 9.5 3.96086 9.71071 3.58579 10.0858C3.21071 10.4609 3 10.9696 3 11.5V15.5C3 16.0304 3.21071 16.5391 3.58579 16.9142C3.96086 17.2893 4.46957 17.5 5 17.5H7" stroke="#152521" stroke-width="2" stroke-linecap="round" stroke-linejoin="round"/>
<path d="M17 9.5V5.5C17 4.96957 16.7893 4.46086 16.4142 4.08579C16.0391 3.71071 15.5304 3.5 15 3.5H9C8.46957 3.5 7.96086 3.71071 7.58579 4.08579C7.21071 4.46086 7 4.96957 7 5.5V9.5" stroke="#152521" stroke-width="2" stroke-linecap="round" stroke-linejoin="round"/>
<path d="M7 15.5C7 14.9696 7.21071 14.4609 7.58579 14.0858C7.96086 13.7107 8.46957 13.5 9 13.5H15C15.5304 13.5 16.0391 13.7107 16.4142 14.0858C16.7893 14.4609 17 14.9696 17 15.5V19.5C17 20.0304 16.7893 20.5391 16.4142 20.9142C16.0391 21.2893 15.5304 21.5 15 21.5H9C8.46957 21.5 7.96086 21.2893 7.58579 20.9142C7.21071 20.5391 7 20.0304 7 19.5V15.5Z" stroke="#152521" stroke-width="2" stroke-linecap="round" stroke-linejoin="round"/>
</svg>
