<svg width="330" height="330" viewBox="0 0 330 330" fill="none" xmlns="http://www.w3.org/2000/svg">
<path d="M90 0H80V10H90V0Z" fill="#152521"/>
<path d="M120 0H110V10H120V0Z" fill="#152521"/>
<path d="M130 0H120V10H130V0Z" fill="#152521"/>
<path d="M140 0H130V10H140V0Z" fill="#152521"/>
<path d="M160 0H150V10H160V0Z" fill="#152521"/>
<path d="M190 0H180V10H190V0Z" fill="#152521"/>
<path d="M240 0H230V10H240V0Z" fill="#152521"/>
<path d="M100 10H90V20H100V10Z" fill="#152521"/>
<path d="M110 10H100V20H110V10Z" fill="#152521"/>
<path d="M120 10H110V20H120V10Z" fill="#152521"/>
<path d="M130 10H120V20H130V10Z" fill="#152521"/>
<path d="M140 10H130V20H140V10Z" fill="#152521"/>
<path d="M150 10H140V20H150V10Z" fill="#152521"/>
<path d="M190 10H180V20H190V10Z" fill="#152521"/>
<path d="M200 10H190V20H200V10Z" fill="#152521"/>
<path d="M110 20H100V30H110V20Z" fill="#152521"/>
<path d="M130 20H120V30H130V20Z" fill="#152521"/>
<path d="M150 20H140V30H150V20Z" fill="#152521"/>
<path d="M160 20H150V30H160V20Z" fill="#152521"/>
<path d="M170 20H160V30H170V20Z" fill="#152521"/>
<path d="M180 20H170V30H180V20Z" fill="#152521"/>
<path d="M190 20H180V30H190V20Z" fill="#152521"/>
<path d="M200 20H190V30H200V20Z" fill="#152521"/>
<path d="M220 20H210V30H220V20Z" fill="#152521"/>
<path d="M240 20H230V30H240V20Z" fill="#152521"/>
<path d="M90 30H80V40H90V30Z" fill="#152521"/>
<path d="M100 30H90V40H100V30Z" fill="#152521"/>
<path d="M120 30H110V40H120V30Z" fill="#152521"/>
<path d="M130 30H120V40H130V30Z" fill="#152521"/>
<path d="M170 30H160V40H170V30Z" fill="#152521"/>
<path d="M180 30H170V40H180V30Z" fill="#152521"/>
<path d="M220 30H210V40H220V30Z" fill="#152521"/>
<path d="M230 30H220V40H230V30Z" fill="#152521"/>
<path d="M90 40H80V50H90V40Z" fill="#152521"/>
<path d="M100 40H90V50H100V40Z" fill="#152521"/>
<path d="M170 40H160V50H170V40Z" fill="#152521"/>
<path d="M180 40H170V50H180V40Z" fill="#152521"/>
<path d="M200 40H190V50H200V40Z" fill="#152521"/>
<path d="M220 40H210V50H220V40Z" fill="#152521"/>
<path d="M230 40H220V50H230V40Z" fill="#152521"/>
<path d="M90 50H80V60H90V50Z" fill="#152521"/>
<path d="M100 50H90V60H100V50Z" fill="#152521"/>
<path d="M110 50H100V60H110V50Z" fill="#152521"/>
<path d="M130 50H120V60H130V50Z" fill="#152521"/>
<path d="M160 50H150V60H160V50Z" fill="#152521"/>
<path d="M180 50H170V60H180V50Z" fill="#152521"/>
<path d="M210 50H200V60H210V50Z" fill="#152521"/>
<path d="M220 50H210V60H220V50Z" fill="#152521"/>
<path d="M230 50H220V60H230V50Z" fill="#152521"/>
<path d="M240 50H230V60H240V50Z" fill="#152521"/>
<path d="M250 50H240V60H250V50Z" fill="#152521"/>
<path d="M90 60H80V70H90V60Z" fill="#152521"/>
<path d="M110 60H100V70H110V60Z" fill="#152521"/>
<path d="M130 60H120V70H130V60Z" fill="#152521"/>
<path d="M150 60H140V70H150V60Z" fill="#152521"/>
<path d="M170 60H160V70H170V60Z" fill="#152521"/>
<path d="M190 60H180V70H190V60Z" fill="#152521"/>
<path d="M210 60H200V70H210V60Z" fill="#152521"/>
<path d="M230 60H220V70H230V60Z" fill="#152521"/>
<path d="M250 60H240V70H250V60Z" fill="#152521"/>
<path d="M90 70H80V80H90V70Z" fill="#152521"/>
<path d="M120 70H110V80H120V70Z" fill="#152521"/>
<path d="M150 70H140V80H150V70Z" fill="#152521"/>
<path d="M180 70H170V80H180V70Z" fill="#152521"/>
<path d="M190 70H180V80H190V70Z" fill="#152521"/>
<path d="M200 70H190V80H200V70Z" fill="#152521"/>
<path d="M210 70H200V80H210V70Z" fill="#152521"/>
<path d="M220 70H210V80H220V70Z" fill="#152521"/>
<path d="M250 70H240V80H250V70Z" fill="#152521"/>
<path d="M10 80H0V90H10V80Z" fill="#152521"/>
<path d="M50 80H40V90H50V80Z" fill="#152521"/>
<path d="M70 80H60V90H70V80Z" fill="#152521"/>
<path d="M80 80H70V90H80V80Z" fill="#152521"/>
<path d="M90 80H80V90H90V80Z" fill="#152521"/>
<path d="M110 80H100V90H110V80Z" fill="#152521"/>
<path d="M130 80H120V90H130V80Z" fill="#152521"/>
<path d="M160 80H150V90H160V80Z" fill="#152521"/>
<path d="M180 80H170V90H180V80Z" fill="#152521"/>
<path d="M210 80H200V90H210V80Z" fill="#152521"/>
<path d="M220 80H210V90H220V80Z" fill="#152521"/>
<path d="M230 80H220V90H230V80Z" fill="#152521"/>
<path d="M240 80H230V90H240V80Z" fill="#152521"/>
<path d="M260 80H250V90H260V80Z" fill="#152521"/>
<path d="M270 80H260V90H270V80Z" fill="#152521"/>
<path d="M280 80H270V90H280V80Z" fill="#152521"/>
<path d="M290 80H280V90H290V80Z" fill="#152521"/>
<path d="M300 80H290V90H300V80Z" fill="#152521"/>
<path d="M330 80H320V90H330V80Z" fill="#152521"/>
<path d="M20 90H10V100H20V90Z" fill="#152521"/>
<path d="M60 90H50V100H60V90Z" fill="#152521"/>
<path d="M80 90H70V100H80V90Z" fill="#152521"/>
<path d="M110 90H100V100H110V90Z" fill="#152521"/>
<path d="M120 90H110V100H120V90Z" fill="#152521"/>
<path d="M160 90H150V100H160V90Z" fill="#152521"/>
<path d="M170 90H160V100H170V90Z" fill="#152521"/>
<path d="M180 90H170V100H180V90Z" fill="#152521"/>
<path d="M190 90H180V100H190V90Z" fill="#152521"/>
<path d="M220 90H210V100H220V90Z" fill="#152521"/>
<path d="M230 90H220V100H230V90Z" fill="#152521"/>
<path d="M240 90H230V100H240V90Z" fill="#152521"/>
<path d="M260 90H250V100H260V90Z" fill="#152521"/>
<path d="M300 90H290V100H300V90Z" fill="#152521"/>
<path d="M310 90H300V100H310V90Z" fill="#152521"/>
<path d="M330 90H320V100H330V90Z" fill="#152521"/>
<path d="M10 100H0V110H10V100Z" fill="#152521"/>
<path d="M30 100H20V110H30V100Z" fill="#152521"/>
<path d="M50 100H40V110H50V100Z" fill="#152521"/>
<path d="M60 100H50V110H60V100Z" fill="#152521"/>
<path d="M70 100H60V110H70V100Z" fill="#152521"/>
<path d="M80 100H70V110H80V100Z" fill="#152521"/>
<path d="M90 100H80V110H90V100Z" fill="#152521"/>
<path d="M140 100H130V110H140V100Z" fill="#152521"/>
<path d="M150 100H140V110H150V100Z" fill="#152521"/>
<path d="M160 100H150V110H160V100Z" fill="#152521"/>
<path d="M190 100H180V110H190V100Z" fill="#152521"/>
<path d="M240 100H230V110H240V100Z" fill="#152521"/>
<path d="M260 100H250V110H260V100Z" fill="#152521"/>
<path d="M300 100H290V110H300V100Z" fill="#152521"/>
<path d="M320 100H310V110H320V100Z" fill="#152521"/>
<path d="M30 110H20V120H30V110Z" fill="#152521"/>
<path d="M50 110H40V120H50V110Z" fill="#152521"/>
<path d="M80 110H70V120H80V110Z" fill="#152521"/>
<path d="M110 110H100V120H110V110Z" fill="#152521"/>
<path d="M130 110H120V120H130V110Z" fill="#152521"/>
<path d="M140 110H130V120H140V110Z" fill="#152521"/>
<path d="M170 110H160V120H170V110Z" fill="#152521"/>
<path d="M200 110H190V120H200V110Z" fill="#152521"/>
<path d="M210 110H200V120H210V110Z" fill="#152521"/>
<path d="M230 110H220V120H230V110Z" fill="#152521"/>
<path d="M250 110H240V120H250V110Z" fill="#152521"/>
<path d="M260 110H250V120H260V110Z" fill="#152521"/>
<path d="M270 110H260V120H270V110Z" fill="#152521"/>
<path d="M10 120H0V130H10V120Z" fill="#152521"/>
<path d="M30 120H20V130H30V120Z" fill="#152521"/>
<path d="M40 120H30V130H40V120Z" fill="#152521"/>
<path d="M70 120H60V130H70V120Z" fill="#152521"/>
<path d="M90 120H80V130H90V120Z" fill="#152521"/>
<path d="M110 120H100V130H110V120Z" fill="#152521"/>
<path d="M130 120H120V130H130V120Z" fill="#152521"/>
<path d="M140 120H130V130H140V120Z" fill="#152521"/>
<path d="M170 120H160V130H170V120Z" fill="#152521"/>
<path d="M230 120H220V130H230V120Z" fill="#152521"/>
<path d="M240 120H230V130H240V120Z" fill="#152521"/>
<path d="M250 120H240V130H250V120Z" fill="#152521"/>
<path d="M270 120H260V130H270V120Z" fill="#152521"/>
<path d="M280 120H270V130H280V120Z" fill="#152521"/>
<path d="M300 120H290V130H300V120Z" fill="#152521"/>
<path d="M330 120H320V130H330V120Z" fill="#152521"/>
<path d="M10 130H0V140H10V130Z" fill="#152521"/>
<path d="M30 130H20V140H30V130Z" fill="#152521"/>
<path d="M40 130H30V140H40V130Z" fill="#152521"/>
<path d="M50 130H40V140H50V130Z" fill="#152521"/>
<path d="M60 130H50V140H60V130Z" fill="#152521"/>
<path d="M80 130H70V140H80V130Z" fill="#152521"/>
<path d="M110 130H100V140H110V130Z" fill="#152521"/>
<path d="M120 130H110V140H120V130Z" fill="#152521"/>
<path d="M150 130H140V140H150V130Z" fill="#152521"/>
<path d="M180 130H170V140H180V130Z" fill="#152521"/>
<path d="M190 130H180V140H190V130Z" fill="#152521"/>
<path d="M200 130H190V140H200V130Z" fill="#152521"/>
<path d="M210 130H200V140H210V130Z" fill="#152521"/>
<path d="M250 130H240V140H250V130Z" fill="#152521"/>
<path d="M260 130H250V140H260V130Z" fill="#152521"/>
<path d="M280 130H270V140H280V130Z" fill="#152521"/>
<path d="M310 130H300V140H310V130Z" fill="#152521"/>
<path d="M30 140H20V150H30V140Z" fill="#152521"/>
<path d="M50 140H40V150H50V140Z" fill="#152521"/>
<path d="M60 140H50V150H60V140Z" fill="#152521"/>
<path d="M70 140H60V150H70V140Z" fill="#152521"/>
<path d="M110 140H100V150H110V140Z" fill="#152521"/>
<path d="M120 140H110V150H120V140Z" fill="#152521"/>
<path d="M130 140H120V150H130V140Z" fill="#152521"/>
<path d="M150 140H140V150H150V140Z" fill="#152521"/>
<path d="M160 140H150V150H160V140Z" fill="#152521"/>
<path d="M180 140H170V150H180V140Z" fill="#152521"/>
<path d="M190 140H180V150H190V140Z" fill="#152521"/>
<path d="M210 140H200V150H210V140Z" fill="#152521"/>
<path d="M220 140H210V150H220V140Z" fill="#152521"/>
<path d="M240 140H230V150H240V140Z" fill="#152521"/>
<path d="M250 140H240V150H250V140Z" fill="#152521"/>
<path d="M260 140H250V150H260V140Z" fill="#152521"/>
<path d="M270 140H260V150H270V140Z" fill="#152521"/>
<path d="M290 140H280V150H290V140Z" fill="#152521"/>
<path d="M320 140H310V150H320V140Z" fill="#152521"/>
<path d="M10 150H0V160H10V150Z" fill="#152521"/>
<path d="M20 150H10V160H20V150Z" fill="#152521"/>
<path d="M30 150H20V160H30V150Z" fill="#152521"/>
<path d="M40 150H30V160H40V150Z" fill="#152521"/>
<path d="M50 150H40V160H50V150Z" fill="#152521"/>
<path d="M80 150H70V160H80V150Z" fill="#152521"/>
<path d="M110 150H100V160H110V150Z" fill="#152521"/>
<path d="M120 150H110V160H120V150Z" fill="#152521"/>
<path d="M140 150H130V160H140V150Z" fill="#152521"/>
<path d="M150 150H140V160H150V150Z" fill="#152521"/>
<path d="M160 150H150V160H160V150Z" fill="#152521"/>
<path d="M170 150H160V160H170V150Z" fill="#152521"/>
<path d="M180 150H170V160H180V150Z" fill="#152521"/>
<path d="M190 150H180V160H190V150Z" fill="#152521"/>
<path d="M220 150H210V160H220V150Z" fill="#152521"/>
<path d="M240 150H230V160H240V150Z" fill="#152521"/>
<path d="M260 150H250V160H260V150Z" fill="#152521"/>
<path d="M270 150H260V160H270V150Z" fill="#152521"/>
<path d="M280 150H270V160H280V150Z" fill="#152521"/>
<path d="M10 160H0V170H10V160Z" fill="#152521"/>
<path d="M20 160H10V170H20V160Z" fill="#152521"/>
<path d="M40 160H30V170H40V160Z" fill="#152521"/>
<path d="M50 160H40V170H50V160Z" fill="#152521"/>
<path d="M60 160H50V170H60V160Z" fill="#152521"/>
<path d="M70 160H60V170H70V160Z" fill="#152521"/>
<path d="M90 160H80V170H90V160Z" fill="#152521"/>
<path d="M100 160H90V170H100V160Z" fill="#152521"/>
<path d="M130 160H120V170H130V160Z" fill="#152521"/>
<path d="M180 160H170V170H180V160Z" fill="#152521"/>
<path d="M190 160H180V170H190V160Z" fill="#152521"/>
<path d="M200 160H190V170H200V160Z" fill="#152521"/>
<path d="M210 160H200V170H210V160Z" fill="#152521"/>
<path d="M220 160H210V170H220V160Z" fill="#152521"/>
<path d="M230 160H220V170H230V160Z" fill="#152521"/>
<path d="M250 160H240V170H250V160Z" fill="#152521"/>
<path d="M270 160H260V170H270V160Z" fill="#152521"/>
<path d="M290 160H280V170H290V160Z" fill="#152521"/>
<path d="M300 160H290V170H300V160Z" fill="#152521"/>
<path d="M320 160H310V170H320V160Z" fill="#152521"/>
<path d="M10 170H0V180H10V170Z" fill="#152521"/>
<path d="M20 170H10V180H20V170Z" fill="#152521"/>
<path d="M50 170H40V180H50V170Z" fill="#152521"/>
<path d="M60 170H50V180H60V170Z" fill="#152521"/>
<path d="M80 170H70V180H80V170Z" fill="#152521"/>
<path d="M90 170H80V180H90V170Z" fill="#152521"/>
<path d="M100 170H90V180H100V170Z" fill="#152521"/>
<path d="M110 170H100V180H110V170Z" fill="#152521"/>
<path d="M160 170H150V180H160V170Z" fill="#152521"/>
<path d="M170 170H160V180H170V170Z" fill="#152521"/>
<path d="M190 170H180V180H190V170Z" fill="#152521"/>
<path d="M210 170H200V180H210V170Z" fill="#152521"/>
<path d="M230 170H220V180H230V170Z" fill="#152521"/>
<path d="M240 170H230V180H240V170Z" fill="#152521"/>
<path d="M250 170H240V180H250V170Z" fill="#152521"/>
<path d="M300 170H290V180H300V170Z" fill="#152521"/>
<path d="M310 170H300V180H310V170Z" fill="#152521"/>
<path d="M320 170H310V180H320V170Z" fill="#152521"/>
<path d="M10 180H0V190H10V180Z" fill="#152521"/>
<path d="M30 180H20V190H30V180Z" fill="#152521"/>
<path d="M40 180H30V190H40V180Z" fill="#152521"/>
<path d="M50 180H40V190H50V180Z" fill="#152521"/>
<path d="M70 180H60V190H70V180Z" fill="#152521"/>
<path d="M80 180H70V190H80V180Z" fill="#152521"/>
<path d="M110 180H100V190H110V180Z" fill="#152521"/>
<path d="M130 180H120V190H130V180Z" fill="#152521"/>
<path d="M140 180H130V190H140V180Z" fill="#152521"/>
<path d="M160 180H150V190H160V180Z" fill="#152521"/>
<path d="M170 180H160V190H170V180Z" fill="#152521"/>
<path d="M180 180H170V190H180V180Z" fill="#152521"/>
<path d="M210 180H200V190H210V180Z" fill="#152521"/>
<path d="M220 180H210V190H220V180Z" fill="#152521"/>
<path d="M230 180H220V190H230V180Z" fill="#152521"/>
<path d="M240 180H230V190H240V180Z" fill="#152521"/>
<path d="M250 180H240V190H250V180Z" fill="#152521"/>
<path d="M260 180H250V190H260V180Z" fill="#152521"/>
<path d="M280 180H270V190H280V180Z" fill="#152521"/>
<path d="M300 180H290V190H300V180Z" fill="#152521"/>
<path d="M320 180H310V190H320V180Z" fill="#152521"/>
<path d="M20 190H10V200H20V190Z" fill="#152521"/>
<path d="M30 190H20V200H30V190Z" fill="#152521"/>
<path d="M50 190H40V200H50V190Z" fill="#152521"/>
<path d="M80 190H70V200H80V190Z" fill="#152521"/>
<path d="M110 190H100V200H110V190Z" fill="#152521"/>
<path d="M130 190H120V200H130V190Z" fill="#152521"/>
<path d="M140 190H130V200H140V190Z" fill="#152521"/>
<path d="M160 190H150V200H160V190Z" fill="#152521"/>
<path d="M180 190H170V200H180V190Z" fill="#152521"/>
<path d="M190 190H180V200H190V190Z" fill="#152521"/>
<path d="M210 190H200V200H210V190Z" fill="#152521"/>
<path d="M220 190H210V200H220V190Z" fill="#152521"/>
<path d="M250 190H240V200H250V190Z" fill="#152521"/>
<path d="M260 190H250V200H260V190Z" fill="#152521"/>
<path d="M270 190H260V200H270V190Z" fill="#152521"/>
<path d="M280 190H270V200H280V190Z" fill="#152521"/>
<path d="M320 190H310V200H320V190Z" fill="#152521"/>
<path d="M10 200H0V210H10V200Z" fill="#152521"/>
<path d="M30 200H20V210H30V200Z" fill="#152521"/>
<path d="M60 200H50V210H60V200Z" fill="#152521"/>
<path d="M70 200H60V210H70V200Z" fill="#152521"/>
<path d="M80 200H70V210H80V200Z" fill="#152521"/>
<path d="M100 200H90V210H100V200Z" fill="#152521"/>
<path d="M120 200H110V210H120V200Z" fill="#152521"/>
<path d="M140 200H130V210H140V200Z" fill="#152521"/>
<path d="M150 200H140V210H150V200Z" fill="#152521"/>
<path d="M190 200H180V210H190V200Z" fill="#152521"/>
<path d="M200 200H190V210H200V200Z" fill="#152521"/>
<path d="M210 200H200V210H210V200Z" fill="#152521"/>
<path d="M270 200H260V210H270V200Z" fill="#152521"/>
<path d="M280 200H270V210H280V200Z" fill="#152521"/>
<path d="M290 200H280V210H290V200Z" fill="#152521"/>
<path d="M300 200H290V210H300V200Z" fill="#152521"/>
<path d="M10 210H0V220H10V210Z" fill="#152521"/>
<path d="M40 210H30V220H40V210Z" fill="#152521"/>
<path d="M60 210H50V220H60V210Z" fill="#152521"/>
<path d="M130 210H120V220H130V210Z" fill="#152521"/>
<path d="M170 210H160V220H170V210Z" fill="#152521"/>
<path d="M180 210H170V220H180V210Z" fill="#152521"/>
<path d="M200 210H190V220H200V210Z" fill="#152521"/>
<path d="M230 210H220V220H230V210Z" fill="#152521"/>
<path d="M270 210H260V220H270V210Z" fill="#152521"/>
<path d="M300 210H290V220H300V210Z" fill="#152521"/>
<path d="M310 210H300V220H310V210Z" fill="#152521"/>
<path d="M320 210H310V220H320V210Z" fill="#152521"/>
<path d="M50 220H40V230H50V220Z" fill="#152521"/>
<path d="M60 220H50V230H60V220Z" fill="#152521"/>
<path d="M70 220H60V230H70V220Z" fill="#152521"/>
<path d="M80 220H70V230H80V220Z" fill="#152521"/>
<path d="M120 220H110V230H120V220Z" fill="#152521"/>
<path d="M130 220H120V230H130V220Z" fill="#152521"/>
<path d="M150 220H140V230H150V220Z" fill="#152521"/>
<path d="M170 220H160V230H170V220Z" fill="#152521"/>
<path d="M190 220H180V230H190V220Z" fill="#152521"/>
<path d="M200 220H190V230H200V220Z" fill="#152521"/>
<path d="M220 220H210V230H220V220Z" fill="#152521"/>
<path d="M240 220H230V230H240V220Z" fill="#152521"/>
<path d="M250 220H240V230H250V220Z" fill="#152521"/>
<path d="M260 220H250V230H260V220Z" fill="#152521"/>
<path d="M310 220H300V230H310V220Z" fill="#152521"/>
<path d="M320 220H310V230H320V220Z" fill="#152521"/>
<path d="M40 230H30V240H40V230Z" fill="#152521"/>
<path d="M50 230H40V240H50V230Z" fill="#152521"/>
<path d="M60 230H50V240H60V230Z" fill="#152521"/>
<path d="M80 230H70V240H80V230Z" fill="#152521"/>
<path d="M90 230H80V240H90V230Z" fill="#152521"/>
<path d="M110 230H100V240H110V230Z" fill="#152521"/>
<path d="M140 230H130V240H140V230Z" fill="#152521"/>
<path d="M180 230H170V240H180V230Z" fill="#152521"/>
<path d="M190 230H180V240H190V230Z" fill="#152521"/>
<path d="M200 230H190V240H200V230Z" fill="#152521"/>
<path d="M210 230H200V240H210V230Z" fill="#152521"/>
<path d="M220 230H210V240H220V230Z" fill="#152521"/>
<path d="M230 230H220V240H230V230Z" fill="#152521"/>
<path d="M260 230H250V240H260V230Z" fill="#152521"/>
<path d="M270 230H260V240H270V230Z" fill="#152521"/>
<path d="M290 230H280V240H290V230Z" fill="#152521"/>
<path d="M300 230H290V240H300V230Z" fill="#152521"/>
<path d="M320 230H310V240H320V230Z" fill="#152521"/>
<path d="M330 230H320V240H330V230Z" fill="#152521"/>
<path d="M10 240H0V250H10V240Z" fill="#152521"/>
<path d="M20 240H10V250H20V240Z" fill="#152521"/>
<path d="M30 240H20V250H30V240Z" fill="#152521"/>
<path d="M50 240H40V250H50V240Z" fill="#152521"/>
<path d="M70 240H60V250H70V240Z" fill="#152521"/>
<path d="M80 240H70V250H80V240Z" fill="#152521"/>
<path d="M110 240H100V250H110V240Z" fill="#152521"/>
<path d="M120 240H110V250H120V240Z" fill="#152521"/>
<path d="M140 240H130V250H140V240Z" fill="#152521"/>
<path d="M150 240H140V250H150V240Z" fill="#152521"/>
<path d="M160 240H150V250H160V240Z" fill="#152521"/>
<path d="M170 240H160V250H170V240Z" fill="#152521"/>
<path d="M180 240H170V250H180V240Z" fill="#152521"/>
<path d="M210 240H200V250H210V240Z" fill="#152521"/>
<path d="M220 240H210V250H220V240Z" fill="#152521"/>
<path d="M230 240H220V250H230V240Z" fill="#152521"/>
<path d="M250 240H240V250H250V240Z" fill="#152521"/>
<path d="M260 240H250V250H260V240Z" fill="#152521"/>
<path d="M270 240H260V250H270V240Z" fill="#152521"/>
<path d="M280 240H270V250H280V240Z" fill="#152521"/>
<path d="M290 240H280V250H290V240Z" fill="#152521"/>
<path d="M300 240H290V250H300V240Z" fill="#152521"/>
<path d="M320 240H310V250H320V240Z" fill="#152521"/>
<path d="M90 250H80V260H90V250Z" fill="#152521"/>
<path d="M110 250H100V260H110V250Z" fill="#152521"/>
<path d="M120 250H110V260H120V250Z" fill="#152521"/>
<path d="M140 250H130V260H140V250Z" fill="#152521"/>
<path d="M150 250H140V260H150V250Z" fill="#152521"/>
<path d="M160 250H150V260H160V250Z" fill="#152521"/>
<path d="M170 250H160V260H170V250Z" fill="#152521"/>
<path d="M180 250H170V260H180V250Z" fill="#152521"/>
<path d="M220 250H210V260H220V250Z" fill="#152521"/>
<path d="M230 250H220V260H230V250Z" fill="#152521"/>
<path d="M240 250H230V260H240V250Z" fill="#152521"/>
<path d="M250 250H240V260H250V250Z" fill="#152521"/>
<path d="M290 250H280V260H290V250Z" fill="#152521"/>
<path d="M310 250H300V260H310V250Z" fill="#152521"/>
<path d="M90 260H80V270H90V260Z" fill="#152521"/>
<path d="M100 260H90V270H100V260Z" fill="#152521"/>
<path d="M110 260H100V270H110V260Z" fill="#152521"/>
<path d="M150 260H140V270H150V260Z" fill="#152521"/>
<path d="M160 260H150V270H160V260Z" fill="#152521"/>
<path d="M190 260H180V270H190V260Z" fill="#152521"/>
<path d="M250 260H240V270H250V260Z" fill="#152521"/>
<path d="M270 260H260V270H270V260Z" fill="#152521"/>
<path d="M290 260H280V270H290V260Z" fill="#152521"/>
<path d="M300 260H290V270H300V260Z" fill="#152521"/>
<path d="M120 270H110V280H120V270Z" fill="#152521"/>
<path d="M150 270H140V280H150V270Z" fill="#152521"/>
<path d="M160 270H150V280H160V270Z" fill="#152521"/>
<path d="M170 270H160V280H170V270Z" fill="#152521"/>
<path d="M200 270H190V280H200V270Z" fill="#152521"/>
<path d="M230 270H220V280H230V270Z" fill="#152521"/>
<path d="M250 270H240V280H250V270Z" fill="#152521"/>
<path d="M290 270H280V280H290V270Z" fill="#152521"/>
<path d="M330 270H320V280H330V270Z" fill="#152521"/>
<path d="M90 280H80V290H90V280Z" fill="#152521"/>
<path d="M120 280H110V290H120V280Z" fill="#152521"/>
<path d="M130 280H120V290H130V280Z" fill="#152521"/>
<path d="M140 280H130V290H140V280Z" fill="#152521"/>
<path d="M150 280H140V290H150V280Z" fill="#152521"/>
<path d="M170 280H160V290H170V280Z" fill="#152521"/>
<path d="M200 280H190V290H200V280Z" fill="#152521"/>
<path d="M230 280H220V290H230V280Z" fill="#152521"/>
<path d="M250 280H240V290H250V280Z" fill="#152521"/>
<path d="M260 280H250V290H260V280Z" fill="#152521"/>
<path d="M270 280H260V290H270V280Z" fill="#152521"/>
<path d="M280 280H270V290H280V280Z" fill="#152521"/>
<path d="M290 280H280V290H290V280Z" fill="#152521"/>
<path d="M300 280H290V290H300V280Z" fill="#152521"/>
<path d="M330 280H320V290H330V280Z" fill="#152521"/>
<path d="M100 290H90V300H100V290Z" fill="#152521"/>
<path d="M110 290H100V300H110V290Z" fill="#152521"/>
<path d="M130 290H120V300H130V290Z" fill="#152521"/>
<path d="M140 290H130V300H140V290Z" fill="#152521"/>
<path d="M190 290H180V300H190V290Z" fill="#152521"/>
<path d="M200 290H190V300H200V290Z" fill="#152521"/>
<path d="M210 290H200V300H210V290Z" fill="#152521"/>
<path d="M240 290H230V300H240V290Z" fill="#152521"/>
<path d="M270 290H260V300H270V290Z" fill="#152521"/>
<path d="M280 290H270V300H280V290Z" fill="#152521"/>
<path d="M290 290H280V300H290V290Z" fill="#152521"/>
<path d="M300 290H290V300H300V290Z" fill="#152521"/>
<path d="M310 290H300V300H310V290Z" fill="#152521"/>
<path d="M320 290H310V300H320V290Z" fill="#152521"/>
<path d="M100 300H90V310H100V300Z" fill="#152521"/>
<path d="M130 300H120V310H130V300Z" fill="#152521"/>
<path d="M150 300H140V310H150V300Z" fill="#152521"/>
<path d="M160 300H150V310H160V300Z" fill="#152521"/>
<path d="M190 300H180V310H190V300Z" fill="#152521"/>
<path d="M210 300H200V310H210V300Z" fill="#152521"/>
<path d="M220 300H210V310H220V300Z" fill="#152521"/>
<path d="M260 300H250V310H260V300Z" fill="#152521"/>
<path d="M270 300H260V310H270V300Z" fill="#152521"/>
<path d="M280 300H270V310H280V300Z" fill="#152521"/>
<path d="M290 300H280V310H290V300Z" fill="#152521"/>
<path d="M300 300H290V310H300V300Z" fill="#152521"/>
<path d="M120 310H110V320H120V310Z" fill="#152521"/>
<path d="M130 310H120V320H130V310Z" fill="#152521"/>
<path d="M140 310H130V320H140V310Z" fill="#152521"/>
<path d="M160 310H150V320H160V310Z" fill="#152521"/>
<path d="M170 310H160V320H170V310Z" fill="#152521"/>
<path d="M180 310H170V320H180V310Z" fill="#152521"/>
<path d="M190 310H180V320H190V310Z" fill="#152521"/>
<path d="M220 310H210V320H220V310Z" fill="#152521"/>
<path d="M240 310H230V320H240V310Z" fill="#152521"/>
<path d="M250 310H240V320H250V310Z" fill="#152521"/>
<path d="M270 310H260V320H270V310Z" fill="#152521"/>
<path d="M90 320H80V330H90V320Z" fill="#152521"/>
<path d="M110 320H100V330H110V320Z" fill="#152521"/>
<path d="M180 320H170V330H180V320Z" fill="#152521"/>
<path d="M200 320H190V330H200V320Z" fill="#152521"/>
<path d="M210 320H200V330H210V320Z" fill="#152521"/>
<path d="M220 320H210V330H220V320Z" fill="#152521"/>
<path d="M230 320H220V330H230V320Z" fill="#152521"/>
<path d="M240 320H230V330H240V320Z" fill="#152521"/>
<path d="M250 320H240V330H250V320Z" fill="#152521"/>
<path d="M260 320H250V330H260V320Z" fill="#152521"/>
<path d="M270 320H260V330H270V320Z" fill="#152521"/>
<path d="M300 320H290V330H300V320Z" fill="#152521"/>
<path d="M330 320H320V330H330V320Z" fill="#152521"/>
<path d="M59.5 0H10.5H0V10.5V59.5V70H10.5H59.5H70V59.5V10.5V0H59.5ZM59.5 59.5H10.5V10.5H59.5V59.5Z" fill="#152521"/>
<path d="M319.5 0H270.5H260V10.5V59.5V70H270.5H319.5H330V59.5V10.5V0H319.5ZM319.5 59.5H270.5V10.5H319.5V59.5Z" fill="#152521"/>
<path d="M59.5 260H10.5H0V270.5V319.5V330H10.5H59.5H70V319.5V270.5V260H59.5ZM59.5 319.5H10.5V270.5H59.5V319.5Z" fill="#152521"/>
<path d="M50 20H20V50H50V20Z" fill="#152521"/>
<path d="M310 20H280V50H310V20Z" fill="#152521"/>
<path d="M50 280H20V310H50V280Z" fill="#152521"/>
</svg>
