<svg width="25" height="25" viewBox="0 0 25 25" fill="none" xmlns="http://www.w3.org/2000/svg">
<g clip-path="url(#clip0_1726_8901)">
<path d="M3.5 10.5C3.5 11.4193 3.68106 12.3295 4.03284 13.1788C4.38463 14.0281 4.90024 14.7997 5.55025 15.4497C6.20026 16.0998 6.97194 16.6154 7.82122 16.9672C8.6705 17.3189 9.58075 17.5 10.5 17.5C11.4193 17.5 12.3295 17.3189 13.1788 16.9672C14.0281 16.6154 14.7997 16.0998 15.4497 15.4497C16.0998 14.7997 16.6154 14.0281 16.9672 13.1788C17.3189 12.3295 17.5 11.4193 17.5 10.5C17.5 9.58075 17.3189 8.6705 16.9672 7.82122C16.6154 6.97194 16.0998 6.20026 15.4497 5.55025C14.7997 4.90024 14.0281 4.38463 13.1788 4.03284C12.3295 3.68106 11.4193 3.5 10.5 3.5C9.58075 3.5 8.6705 3.68106 7.82122 4.03284C6.97194 4.38463 6.20026 4.90024 5.55025 5.55025C4.90024 6.20026 4.38463 6.97194 4.03284 7.82122C3.68106 8.6705 3.5 9.58075 3.5 10.5Z" stroke="white" stroke-width="1.5" stroke-linecap="round" stroke-linejoin="round"/>
<path d="M21.5 21.5L15.5 15.5" stroke="white" stroke-width="1.5" stroke-linecap="round" stroke-linejoin="round"/>
</g>
<defs>
<clipPath id="clip0_1726_8901">
<rect width="24" height="24" fill="white" transform="translate(0.5 0.5)"/>
</clipPath>
</defs>
</svg>
