<svg width="24" height="24" viewBox="0 0 24 24" fill="none" xmlns="http://www.w3.org/2000/svg">
<path d="M12.2967 9.01497C11.901 8.96887 11.5001 9.00204 11.1174 9.11254C10.7346 9.22305 10.3777 9.40869 10.0675 9.65861C9.75725 9.90853 9.4999 10.2177 9.31046 10.5682C9.12101 10.9186 9.00326 11.3033 8.96408 11.6998C8.9249 12.0962 8.96508 12.4965 9.08226 12.8773C9.19944 13.258 9.39128 13.6116 9.64659 13.9174C9.9019 14.2232 10.2156 14.4751 10.5693 14.6584C10.923 14.8417 11.3097 14.9527 11.7067 14.985C12.4907 15.0486 13.2683 14.8018 13.8722 14.2978C14.476 13.7937 14.8576 13.0726 14.935 12.2899C15.0124 11.5071 14.7792 10.7253 14.2857 10.1128C13.7923 9.50023 13.078 9.106 12.2967 9.01497ZM19.5187 12C19.5167 12.3262 19.4927 12.652 19.4467 12.975L21.5667 14.637C21.6587 14.7136 21.7206 14.8203 21.7414 14.9381C21.7623 15.056 21.7408 15.1774 21.6807 15.281L19.6757 18.75C19.6148 18.8524 19.5198 18.93 19.4073 18.9693C19.2949 19.0086 19.1722 19.0071 19.0607 18.965L16.9557 18.118C16.8397 18.0716 16.714 18.0548 16.5899 18.0691C16.4657 18.0834 16.3471 18.1284 16.2447 18.2C15.9234 18.4213 15.5858 18.6178 15.2347 18.788C15.1245 18.8416 15.0291 18.9216 14.9571 19.0208C14.8851 19.1201 14.8386 19.2355 14.8217 19.357L14.5057 21.601C14.4851 21.7195 14.424 21.8272 14.3328 21.9056C14.2416 21.984 14.126 22.0283 14.0057 22.031H9.99573C9.87747 22.0291 9.76339 21.9869 9.67231 21.9115C9.58123 21.836 9.51859 21.7318 9.49473 21.616L9.17973 19.374C9.16208 19.2511 9.11431 19.1344 9.04069 19.0345C8.96706 18.9345 8.86985 18.8543 8.75773 18.801C8.40715 18.6315 8.07074 18.4342 7.75173 18.211C7.6496 18.14 7.53142 18.0955 7.40783 18.0815C7.28424 18.0676 7.15912 18.0846 7.04373 18.131L4.93873 18.979C4.82717 19.0214 4.70423 19.023 4.59155 18.9837C4.47887 18.9444 4.38368 18.8666 4.32273 18.764L2.32073 15.295C2.26045 15.1915 2.23883 15.07 2.2597 14.9521C2.28057 14.8342 2.34259 14.7275 2.43473 14.651L4.22673 13.245C4.32465 13.167 4.40155 13.0657 4.45044 12.9505C4.49934 12.8352 4.51868 12.7096 4.50673 12.585C4.47126 12.1974 4.47126 11.8075 4.50673 11.42C4.51738 11.296 4.49699 11.1712 4.44741 11.0571C4.39783 10.9429 4.32062 10.8429 4.22273 10.766L2.43173 9.35997C2.34099 9.28311 2.28016 9.17679 2.25987 9.05962C2.23957 8.94245 2.26112 8.82187 2.32073 8.71897L4.32573 5.24997C4.38668 5.14736 4.48187 5.06955 4.59455 5.03022C4.70723 4.99089 4.83017 4.99257 4.94173 5.03497L7.04673 5.88197C7.16264 5.92801 7.28815 5.94462 7.41204 5.93031C7.53594 5.916 7.65436 5.87122 7.75673 5.79997C8.07806 5.57904 8.4157 5.38281 8.76673 5.21297C8.87729 5.15934 8.97292 5.07927 9.04514 4.97984C9.11736 4.88041 9.16393 4.7647 9.18073 4.64297L9.49573 2.39997C9.5165 2.28154 9.57768 2.17397 9.66884 2.09557C9.76001 2.01717 9.87552 1.97279 9.99573 1.96997H14.0057C14.1243 1.97168 14.2387 2.01387 14.33 2.08953C14.4213 2.16519 14.484 2.26978 14.5077 2.38597L14.8227 4.62697C14.8403 4.74977 14.8879 4.86633 14.9613 4.96629C15.0348 5.06626 15.1318 5.14653 15.2437 5.19997C15.5947 5.36997 15.9307 5.56597 16.2497 5.78997C16.352 5.86114 16.4703 5.90571 16.5941 5.91968C16.7179 5.93365 16.8432 5.91656 16.9587 5.86997L19.0627 5.02197C19.1743 4.97957 19.2972 4.97789 19.4099 5.01722C19.5226 5.05655 19.6178 5.13436 19.6787 5.23697L21.6837 8.70597C21.7439 8.80956 21.7654 8.93113 21.7443 9.04905C21.7232 9.16698 21.661 9.27361 21.5687 9.34997L19.7777 10.756C19.6791 10.8335 19.6014 10.9346 19.5518 11.0499C19.5022 11.1651 19.4822 11.291 19.4937 11.416C19.5097 11.611 19.5197 11.806 19.5197 12.001L19.5187 12Z" stroke="#152521" stroke-width="2" stroke-linecap="round" stroke-linejoin="round"/>
</svg>
