<svg width="16" height="17" viewBox="0 0 16 17" fill="none" xmlns="http://www.w3.org/2000/svg">
<g id="Frame">
<path id="Vector" d="M7.52935 8.97058L3.76465 11.7941" stroke="#536460" stroke-width="1.5" stroke-linecap="round" stroke-linejoin="round"/>
<path id="Vector_2" d="M7.5293 2.38235V8.97059H14.1175" stroke="#536460" stroke-width="1.5" stroke-linecap="round" stroke-linejoin="round"/>
<path id="Vector_3" d="M1.88281 8.5C1.88281 9.30338 2.04105 10.0989 2.34849 10.8411C2.65593 11.5834 3.10655 12.2578 3.67463 12.8258C4.24271 13.3939 4.91711 13.8445 5.65934 14.152C6.40156 14.4594 7.19708 14.6176 8.00046 14.6176C8.80384 14.6176 9.59935 14.4594 10.3416 14.152C11.0838 13.8445 11.7582 13.3939 12.3263 12.8258C12.8944 12.2578 13.345 11.5834 13.6524 10.8411C13.9599 10.0989 14.1181 9.30338 14.1181 8.5C14.1181 7.69662 13.9599 6.90111 13.6524 6.15888C13.345 5.41665 12.8944 4.74225 12.3263 4.17417C11.7582 3.6061 11.0838 3.15547 10.3416 2.84803C9.59935 2.54059 8.80384 2.38235 8.00046 2.38235C7.19708 2.38235 6.40156 2.54059 5.65934 2.84803C4.91711 3.15547 4.24271 3.6061 3.67463 4.17417C3.10655 4.74225 2.65593 5.41665 2.34849 6.15888C2.04105 6.90111 1.88281 7.69662 1.88281 8.5Z" stroke="#536460" stroke-width="1.5" stroke-linecap="round" stroke-linejoin="round"/>
</g>
</svg>
