<svg width="16" height="16" viewBox="0 0 16 16" fill="none" xmlns="http://www.w3.org/2000/svg">
<path d="M8 9.25C8.11051 9.25 8.21649 9.2061 8.29463 9.12796C8.37277 9.04982 8.41667 8.94384 8.41667 8.83333C8.41667 8.72283 8.37277 8.61685 8.29463 8.5387C8.21649 8.46056 8.11051 8.41667 8 8.41667C7.88949 8.41667 7.78351 8.46056 7.70537 8.5387C7.62723 8.61685 7.58333 8.72283 7.58333 8.83333C7.58333 8.94384 7.62723 9.04982 7.70537 9.12796C7.78351 9.2061 7.88949 9.25 8 9.25Z" fill="#152521"/>
<path d="M8.625 3.87222V3.625C8.625 3.45924 8.55915 3.30027 8.44194 3.18306C8.32473 3.06585 8.16576 3 8 3C7.83424 3 7.67527 3.06585 7.55806 3.18306C7.44085 3.30027 7.375 3.45924 7.375 3.625V3.87222C6.58568 3.97126 5.83162 4.25817 5.17611 4.70889L4.90111 4.43222C4.78368 4.31479 4.62441 4.24882 4.45834 4.24882C4.29226 4.24882 4.13299 4.31479 4.01556 4.43222C3.89813 4.54965 3.83215 4.70893 3.83215 4.875C3.83215 5.04107 3.89813 5.20035 4.01556 5.31778L4.23945 5.54167C3.43955 6.45153 2.99887 7.62185 3 8.83333C3 11.5906 5.24278 13.8333 8 13.8333C10.7572 13.8333 13 11.5906 13 8.83333C13 6.28778 11.0878 4.18056 8.625 3.87222ZM8 10.0833C7.70522 10.0832 7.41997 9.97892 7.19463 9.78887C6.96929 9.59883 6.81836 9.33526 6.76851 9.04472C6.71866 8.75419 6.77309 8.45539 6.92219 8.20109C7.07128 7.9468 7.30545 7.75338 7.58333 7.655V5.70833C7.58333 5.59783 7.62723 5.49185 7.70537 5.41371C7.78351 5.33556 7.88949 5.29167 8 5.29167C8.11051 5.29167 8.21649 5.33556 8.29463 5.41371C8.37277 5.49185 8.41667 5.59783 8.41667 5.70833V7.655C8.69455 7.75338 8.92872 7.9468 9.07782 8.20109C9.22691 8.45539 9.28135 8.75419 9.23149 9.04472C9.18164 9.33526 9.03072 9.59883 8.80538 9.78887C8.58004 9.97892 8.29478 10.0832 8 10.0833Z" fill="#152521"/>
</svg>
