<svg width="12" height="13" viewBox="0 0 12 13" fill="none" xmlns="http://www.w3.org/2000/svg">
<path d="M6 1.625C3.312 1.625 1.125 3.812 1.125 6.5C1.125 9.188 3.312 11.375 6 11.375C8.688 11.375 10.875 9.188 10.875 6.5C10.875 3.812 8.688 1.625 6 1.625ZM4.823 4.363C5.12 4.048 5.538 3.875 6 3.875C6.462 3.875 6.8765 4.0495 7.1745 4.366C7.4765 4.686 7.6235 5.117 7.589 5.5805C7.519 6.5 6.807 7.25 6 7.25C5.193 7.25 4.479 6.5 4.411 5.58C4.3765 5.113 4.5235 4.681 4.823 4.363ZM6 10.625C5.44934 10.6253 4.90423 10.515 4.39698 10.3007C3.88972 10.0865 3.43066 9.7725 3.047 9.3775C3.267 9.0645 3.547 8.7975 3.8705 8.594C4.468 8.211 5.224 8 6 8C6.776 8 7.532 8.211 8.129 8.594C8.453 8.79781 8.73313 9.06417 8.953 9.3775C8.56941 9.7726 8.11036 10.0866 7.60309 10.3009C7.09582 10.5152 6.55068 10.6254 6 10.625Z" fill="#536460"/>
</svg>
