<svg width="25" height="25" viewBox="0 0 25 25" fill="none" xmlns="http://www.w3.org/2000/svg">
<path d="M4.49507 11.7831C4.34119 11.7831 4.23962 11.9431 4.30547 12.0822C4.94094 13.4245 7.51708 18.8607 7.91665 19.6124C8.37306 20.4711 9.13374 20.3196 9.48873 19.4609C9.74546 18.8399 10.2674 17.5055 10.5367 16.8144C10.6024 16.6458 10.8357 16.6333 10.918 16.7945C11.276 17.4957 11.9936 18.9079 12.3286 19.6124C12.785 20.5722 13.5964 20.3196 13.9007 19.6124C14.1383 19.0602 14.3759 18.5388 14.4686 18.3368C14.4943 18.2808 14.4943 18.2164 14.4685 18.1605L11.5735 11.9047C11.5392 11.8306 11.4649 11.7831 11.3832 11.7831H8.90922C8.75479 11.7831 8.65334 11.9443 8.72018 12.0836L9.65263 14.0255C9.6775 14.0773 9.68003 14.137 9.65962 14.1907L9.15925 15.5079C9.09321 15.6818 8.85035 15.69 8.77268 15.521L7.11067 11.9052C7.07646 11.8308 7.00205 11.7831 6.92013 11.7831H4.49507Z" fill="#00A023"/>
<path d="M23.8059 12.8316C23.8059 18.8926 18.8925 23.806 12.8315 23.806C6.77047 23.806 1.85706 18.8926 1.85706 12.8316C1.85706 6.77059 6.77047 1.85718 12.8315 1.85718C18.8925 1.85718 23.8059 6.77059 23.8059 12.8316Z" stroke="#00A023" stroke-width="1.74752"/>
<path d="M6.43555 9.26668C9.37138 5.49205 15.6275 5.84155 18.0391 8.25312C20.4506 10.6647 21.2545 14.0199 19.3672 16.3966C17.5631 18.6683 14.5091 18.7033 13.4256 16.2568C12.8315 14.5092 14.0897 13.4607 15.1382 13.4258C16.1867 13.3908 16.7808 14.3694 16.5711 15.2432C16.3614 16.117 14.9285 16.0471 14.9634 15.0684" stroke="#00A023" stroke-width="1.25821" stroke-linecap="round"/>
<path d="M15.6975 9.61614C15.1383 9.40644 14.649 9.61614 14.4044 9.96564C14.1597 10.3151 14.4044 10.4549 14.6141 10.4899C14.8238 10.5248 14.7189 10.7695 14.9985 10.9093C15.2781 11.0491 15.4179 10.8394 15.5927 10.9093C15.7674 10.9792 15.9072 11.3637 16.1169 10.9792C16.3266 10.5947 16.2567 9.82584 15.6975 9.61614Z" fill="#00A023"/>
</svg>
