<svg width="191" height="40" viewBox="0 0 191 40" fill="none" xmlns="http://www.w3.org/2000/svg">
<g clip-path="url(#clip0_25_797)">
<path d="M74.664 11.2L70.752 23.104L66.912 11.2H63.312L59.352 23.008L55.56 11.2H51.528L57.048 28H61.2L65.016 16.624L68.712 28H72.888L78.384 11.2H74.664ZM92.544 28H96.624L89.112 11.2H85.272L77.784 28H81.768L83.256 24.4H91.056L92.544 28ZM84.504 21.448L87.168 15.016L89.832 21.448H84.504ZM113.247 28L109.479 22.6C111.663 21.664 112.935 19.816 112.935 17.296C112.935 13.528 110.127 11.2 105.639 11.2H98.367V28H102.255V23.32H105.639H105.831L109.071 28H113.247ZM108.999 17.296C108.999 19.12 107.799 20.224 105.423 20.224H102.255V14.368H105.423C107.799 14.368 108.999 15.448 108.999 17.296ZM119.261 28H123.149V14.368H128.525V11.2H113.885V14.368H119.261V28ZM142.325 28H146.405L138.893 11.2H135.053L127.565 28H131.549L133.037 24.4H140.837L142.325 28ZM134.285 21.448L136.949 15.016L139.613 21.448H134.285ZM168.906 11.2L164.994 23.104L161.154 11.2H157.554L153.594 23.008L149.802 11.2H145.77L151.29 28H155.442L159.258 16.624L162.954 28H167.13L172.626 11.2H168.906ZM186.786 28H190.866L183.354 11.2H179.514L172.026 28H176.01L177.498 24.4H185.298L186.786 28ZM178.746 21.448L181.41 15.016L184.074 21.448H178.746Z" fill="#F2E9B6"/>
<path d="M6.82502 17.9717C6.56854 17.9717 6.39927 18.2384 6.50901 18.4702C7.56812 20.7075 11.8617 29.7677 12.5276 31.0207C13.2883 32.4518 14.5561 32.1993 15.1478 30.7681C15.5757 29.7331 16.4456 27.5092 16.8944 26.3573C17.0039 26.0763 17.3928 26.0554 17.5299 26.324C18.1265 27.4928 19.3225 29.8465 19.8809 31.0207C20.6416 32.6202 21.9939 32.1993 22.5011 31.0207C22.8971 30.1003 23.2931 29.2312 23.4476 28.8946C23.4904 28.8013 23.4904 28.6939 23.4473 28.6007L18.6224 18.1745C18.5652 18.0509 18.4414 17.9717 18.3052 17.9717H14.1819C13.9246 17.9717 13.7555 18.2405 13.8669 18.4725L15.4209 21.7091C15.4624 21.7954 15.4666 21.895 15.4326 21.9845L14.5987 24.1798C14.4886 24.4696 14.0838 24.4833 13.9544 24.2017L11.1844 18.1753C11.1273 18.0512 11.0033 17.9717 10.8668 17.9717H6.82502Z" fill="#F2E9B6"/>
<path d="M39.0099 19.7193C39.0099 29.8209 30.8209 38.0099 20.7192 38.0099C10.6176 38.0099 2.42856 29.8209 2.42856 19.7193C2.42856 9.61759 10.6176 1.42857 20.7192 1.42857C30.8209 1.42857 39.0099 9.61759 39.0099 19.7193Z" stroke="#F2E9B6" stroke-width="2.91253"/>
<path d="M10.0594 13.7777C14.9525 7.48664 25.3793 8.06914 29.3986 12.0884C33.4179 16.1077 34.7577 21.6998 31.6121 25.6608C28.6054 29.4471 23.5153 29.5054 21.7095 25.4278C20.7193 22.5153 22.8163 20.7678 24.5638 20.7095C26.3113 20.6513 27.3016 22.2823 26.9521 23.7386C26.6026 25.1948 24.2143 25.0783 24.2726 23.4473" stroke="#F2E9B6" stroke-width="2.09702" stroke-linecap="round"/>
<path d="M25.4958 14.3602C24.5638 14.0107 23.7483 14.3602 23.3405 14.9427C22.9328 15.5252 23.3405 15.7582 23.69 15.8165C24.0395 15.8747 23.8648 16.2825 24.3308 16.5155C24.7968 16.7485 25.0298 16.399 25.321 16.5155C25.6123 16.632 25.8453 17.2727 26.1948 16.632C26.5443 15.9912 26.4278 14.7097 25.4958 14.3602Z" fill="#F2E9B6"/>
</g>
<defs>
<clipPath id="clip0_25_797">
<rect width="191" height="40" fill="white"/>
</clipPath>
</defs>
</svg>
