<svg width="40" height="40" viewBox="0 0 40 40" fill="none" xmlns="http://www.w3.org/2000/svg">
<path d="M40 7.59766C39.4531 8.41797 38.8346 9.17969 38.1445 9.88281C37.4544 10.5859 36.7057 11.237 35.8984 11.8359C35.9115 12.0182 35.918 12.194 35.918 12.3633C35.918 12.5326 35.9245 12.7148 35.9375 12.9102C35.9375 14.5508 35.7617 16.1719 35.4102 17.7734C35.0586 19.375 34.5508 20.9245 33.8867 22.4219C32.9232 24.5964 31.7188 26.5365 30.2734 28.2422C28.8281 29.9479 27.194 31.3997 25.3711 32.5977C23.5482 33.7956 21.5495 34.7005 19.375 35.3125C17.2005 35.9245 14.9349 36.237 12.5781 36.25C10.3385 36.25 8.15755 35.944 6.03516 35.332C3.91276 34.7201 1.90104 33.7956 0 32.5586C0.638021 32.6367 1.28906 32.6758 1.95312 32.6758C3.8151 32.6758 5.61198 32.3763 7.34375 31.7773C9.07552 31.1784 10.6771 30.306 12.1484 29.1602C11.276 29.1471 10.4362 29.0039 9.62891 28.7305C8.82161 28.457 8.08594 28.0664 7.42188 27.5586C6.75781 27.0508 6.17188 26.4518 5.66406 25.7617C5.15625 25.0716 4.76562 24.3099 4.49219 23.4766C4.7526 23.5156 5.00651 23.5482 5.25391 23.5742C5.5013 23.6003 5.76172 23.6133 6.03516 23.6133C6.76432 23.6133 7.48047 23.5156 8.18359 23.3203C7.22005 23.125 6.34115 22.7799 5.54688 22.2852C4.7526 21.7904 4.05599 21.1914 3.45703 20.4883C2.85807 19.7852 2.40234 18.9844 2.08984 18.0859C1.77734 17.1875 1.61458 16.25 1.60156 15.2734V15.1758C2.7474 15.8268 3.99089 16.1719 5.33203 16.2109C4.75911 15.8203 4.2513 15.3776 3.80859 14.8828C3.36589 14.388 2.98177 13.8411 2.65625 13.2422C2.33073 12.6432 2.08984 12.0247 1.93359 11.3867C1.77734 10.7487 1.69271 10.0781 1.67969 9.375C1.67969 8.64583 1.77083 7.9362 1.95312 7.24609C2.13542 6.55599 2.41536 5.89193 2.79297 5.25391C3.83464 6.54297 4.99349 7.69531 6.26953 8.71094C7.54557 9.72656 8.89974 10.6055 10.332 11.3477C11.7643 12.0898 13.2747 12.6628 14.8633 13.0664C16.4518 13.4701 18.0664 13.724 19.707 13.8281C19.6289 13.5286 19.5768 13.2227 19.5508 12.9102C19.5247 12.5977 19.5052 12.2786 19.4922 11.9531C19.4922 10.8203 19.707 9.75911 20.1367 8.76953C20.5664 7.77995 21.1523 6.90755 21.8945 6.15234C22.6367 5.39714 23.5026 4.8112 24.4922 4.39453C25.4818 3.97786 26.5495 3.76302 27.6953 3.75C28.8411 3.75 29.9284 3.97135 30.957 4.41406C31.9857 4.85677 32.8971 5.5013 33.6914 6.34766C34.6159 6.16536 35.5078 5.91146 36.3672 5.58594C37.2266 5.26042 38.0664 4.85026 38.8867 4.35547C38.5872 5.30599 38.1315 6.17188 37.5195 6.95312C36.9076 7.73438 36.1654 8.37891 35.293 8.88672C36.9336 8.69141 38.5026 8.26172 40 7.59766Z" fill="#AAC1BC"/>
</svg>
