<svg width="40" height="40" viewBox="0 0 40 40" fill="none" xmlns="http://www.w3.org/2000/svg">
<path d="M20.0007 3.33334C10.8007 3.33334 3.33398 10.8 3.33398 20C3.33398 29.2 10.8007 36.6667 20.0007 36.6667C29.2007 36.6667 36.6673 29.2 36.6673 20C36.6673 10.8 29.2007 3.33334 20.0007 3.33334ZM27.734 14.6667C27.484 17.3 26.4007 23.7 25.8507 26.65C25.6173 27.9 25.1507 28.3167 24.7173 28.3667C23.7507 28.45 23.0173 27.7333 22.084 27.1167C20.6173 26.15 19.784 25.55 18.3673 24.6167C16.7173 23.5333 17.784 22.9333 18.734 21.9667C18.984 21.7167 23.2507 17.8333 23.334 17.4833C23.3456 17.4303 23.344 17.3753 23.3295 17.323C23.315 17.2707 23.2879 17.2228 23.2507 17.1833C23.1507 17.1 23.0173 17.1333 22.9007 17.15C22.7507 17.1833 20.4173 18.7333 15.8673 21.8C15.2007 22.25 14.6006 22.4833 14.0673 22.4667C13.4673 22.45 12.334 22.1333 11.484 21.85C10.434 21.5167 9.61732 21.3333 9.68398 20.75C9.71732 20.45 10.134 20.15 10.9173 19.8333C15.784 17.7167 19.0173 16.3167 20.634 15.65C25.2673 13.7167 26.2173 13.3833 26.8507 13.3833C26.984 13.3833 27.3006 13.4167 27.5007 13.5833C27.6673 13.7167 27.7173 13.9 27.734 14.0333C27.7173 14.1333 27.7506 14.4333 27.734 14.6667Z" fill="#AAC1BC"/>
</svg>
