<svg width="36" height="36" viewBox="0 0 36 36" fill="none" xmlns="http://www.w3.org/2000/svg">
<path d="M18 0C8.07508 0 0 8.07508 0 18C0 27.9249 8.07508 36 18 36C27.9249 36 36 27.9249 36 18C36 8.07508 27.9249 0 18 0ZM18.1735 8.30769C19.826 8.30769 21.4109 8.96415 22.5794 10.1326C23.7479 11.3011 24.4043 12.886 24.4043 14.5385C24.4043 16.191 23.7479 17.7758 22.5794 18.9443C21.4109 20.1128 19.826 20.7692 18.1735 20.7692C16.521 20.7692 14.9362 20.1128 13.7677 18.9443C12.5992 17.7758 11.9428 16.191 11.9428 14.5385C11.9428 12.886 12.5992 11.3011 13.7677 10.1326C14.9362 8.96415 16.521 8.30769 18.1735 8.30769ZM18 33.2308C15.8994 33.2315 13.8214 32.7966 11.8974 31.9536C9.97334 31.1105 8.24501 29.8777 6.82154 28.3329C7.58585 24.3692 14.4554 23.5385 18 23.5385C21.5446 23.5385 28.4123 24.3692 29.1785 28.3311C27.7553 29.8764 26.0271 31.1097 24.103 31.953C22.1789 32.7964 20.1008 33.2315 18 33.2308Z" fill="#004231"/>
</svg>
